<mxfile host="app.diagrams.net" modified="2023-06-30T10:34:49.230Z" agent="Mozilla/5.0 (Windows NT 10.0; Win64; x64) AppleWebKit/537.36 (KHTML, like Gecko) Chrome/114.0.0.0 Safari/537.36" etag="w4VFWfV4TmRY8mY6cuZi" version="21.5.0" type="device">
  <diagram name="PÃ¡gina-1" id="Lrx0LUyYGFo_pJ0b0grG">
    <mxGraphModel dx="1328" dy="1369" grid="1" gridSize="10" guides="1" tooltips="1" connect="1" arrows="1" fold="1" page="1" pageScale="1" pageWidth="850" pageHeight="1100" math="0" shadow="0">
      <root>
        <mxCell id="0" />
        <mxCell id="1" parent="0" />
        <mxCell id="ufzjEFwgDuIGSn9WfB68-7" style="rounded=0;orthogonalLoop=1;jettySize=auto;html=1;exitX=1;exitY=0;exitDx=0;exitDy=0;startArrow=classic;startFill=1;strokeWidth=2;" parent="1" source="ufzjEFwgDuIGSn9WfB68-1" target="ufzjEFwgDuIGSn9WfB68-2" edge="1">
          <mxGeometry relative="1" as="geometry" />
        </mxCell>
        <mxCell id="ufzjEFwgDuIGSn9WfB68-8" style="rounded=0;orthogonalLoop=1;jettySize=auto;html=1;exitX=1;exitY=0.5;exitDx=0;exitDy=0;startArrow=classic;startFill=1;strokeWidth=2;" parent="1" source="ufzjEFwgDuIGSn9WfB68-1" target="ufzjEFwgDuIGSn9WfB68-3" edge="1">
          <mxGeometry relative="1" as="geometry" />
        </mxCell>
        <mxCell id="ufzjEFwgDuIGSn9WfB68-9" style="rounded=0;orthogonalLoop=1;jettySize=auto;html=1;exitX=1;exitY=0.5;exitDx=0;exitDy=0;entryX=0;entryY=0.5;entryDx=0;entryDy=0;strokeWidth=2;startArrow=classic;startFill=1;" parent="1" source="ufzjEFwgDuIGSn9WfB68-1" target="ufzjEFwgDuIGSn9WfB68-4" edge="1">
          <mxGeometry relative="1" as="geometry" />
        </mxCell>
        <mxCell id="ufzjEFwgDuIGSn9WfB68-10" style="rounded=0;orthogonalLoop=1;jettySize=auto;html=1;exitX=1;exitY=1;exitDx=0;exitDy=0;entryX=-0.017;entryY=0.4;entryDx=0;entryDy=0;entryPerimeter=0;startArrow=classic;startFill=1;strokeWidth=2;" parent="1" source="ufzjEFwgDuIGSn9WfB68-1" target="ufzjEFwgDuIGSn9WfB68-5" edge="1">
          <mxGeometry relative="1" as="geometry" />
        </mxCell>
        <mxCell id="ufzjEFwgDuIGSn9WfB68-43" style="edgeStyle=orthogonalEdgeStyle;rounded=0;orthogonalLoop=1;jettySize=auto;html=1;exitX=0.5;exitY=1;exitDx=0;exitDy=0;entryX=0.5;entryY=0;entryDx=0;entryDy=0;strokeWidth=2;startArrow=classic;startFill=1;" parent="1" source="ufzjEFwgDuIGSn9WfB68-2" target="ufzjEFwgDuIGSn9WfB68-3" edge="1">
          <mxGeometry relative="1" as="geometry" />
        </mxCell>
        <mxCell id="ufzjEFwgDuIGSn9WfB68-84" style="edgeStyle=orthogonalEdgeStyle;rounded=0;orthogonalLoop=1;jettySize=auto;html=1;exitX=0;exitY=0.5;exitDx=0;exitDy=0;entryX=0;entryY=0.5;entryDx=0;entryDy=0;startArrow=classic;startFill=1;strokeWidth=2;curved=1;" parent="1" source="ufzjEFwgDuIGSn9WfB68-2" target="ufzjEFwgDuIGSn9WfB68-5" edge="1">
          <mxGeometry relative="1" as="geometry">
            <Array as="points">
              <mxPoint x="-80" y="160" />
              <mxPoint x="-80" y="910" />
            </Array>
          </mxGeometry>
        </mxCell>
        <mxCell id="ufzjEFwgDuIGSn9WfB68-92" style="edgeStyle=orthogonalEdgeStyle;rounded=0;orthogonalLoop=1;jettySize=auto;html=1;exitX=1;exitY=0.5;exitDx=0;exitDy=0;entryX=1;entryY=0.5;entryDx=0;entryDy=0;strokeWidth=2;startArrow=classic;startFill=1;elbow=vertical;curved=1;" parent="1" source="ufzjEFwgDuIGSn9WfB68-2" target="ufzjEFwgDuIGSn9WfB68-4" edge="1">
          <mxGeometry relative="1" as="geometry">
            <Array as="points">
              <mxPoint x="450" y="160" />
              <mxPoint x="450" y="660" />
            </Array>
          </mxGeometry>
        </mxCell>
        <mxCell id="ufzjEFwgDuIGSn9WfB68-101" style="rounded=0;orthogonalLoop=1;jettySize=auto;html=1;exitX=1;exitY=1;exitDx=0;exitDy=0;entryX=0;entryY=0;entryDx=0;entryDy=0;startArrow=classic;startFill=1;strokeWidth=2;" parent="1" source="ufzjEFwgDuIGSn9WfB68-2" target="ufzjEFwgDuIGSn9WfB68-64" edge="1">
          <mxGeometry relative="1" as="geometry" />
        </mxCell>
        <mxCell id="ufzjEFwgDuIGSn9WfB68-109" style="rounded=0;orthogonalLoop=1;jettySize=auto;html=1;exitX=1;exitY=1;exitDx=0;exitDy=0;entryX=0;entryY=0;entryDx=0;entryDy=0;startArrow=classic;startFill=1;strokeWidth=2;" parent="1" source="ufzjEFwgDuIGSn9WfB68-2" target="ufzjEFwgDuIGSn9WfB68-69" edge="1">
          <mxGeometry relative="1" as="geometry" />
        </mxCell>
        <mxCell id="ufzjEFwgDuIGSn9WfB68-2" value="&lt;font style=&quot;font-size: 26px;&quot; face=&quot;Times New Roman&quot;&gt;S&lt;sub&gt;1&lt;/sub&gt;&lt;/font&gt;" style="ellipse;whiteSpace=wrap;html=1;aspect=fixed;strokeWidth=2;" parent="1" vertex="1">
          <mxGeometry x="330" y="130" width="60" height="60" as="geometry" />
        </mxCell>
        <mxCell id="ufzjEFwgDuIGSn9WfB68-44" style="edgeStyle=orthogonalEdgeStyle;rounded=0;orthogonalLoop=1;jettySize=auto;html=1;exitX=0.5;exitY=1;exitDx=0;exitDy=0;entryX=0.5;entryY=0;entryDx=0;entryDy=0;strokeWidth=2;startArrow=classic;startFill=1;" parent="1" source="ufzjEFwgDuIGSn9WfB68-3" target="ufzjEFwgDuIGSn9WfB68-4" edge="1">
          <mxGeometry relative="1" as="geometry" />
        </mxCell>
        <mxCell id="ufzjEFwgDuIGSn9WfB68-123" style="rounded=0;orthogonalLoop=1;jettySize=auto;html=1;exitX=1;exitY=0.5;exitDx=0;exitDy=0;entryX=-0.022;entryY=0.408;entryDx=0;entryDy=0;entryPerimeter=0;startArrow=classic;startFill=1;strokeWidth=2;" parent="1" source="ufzjEFwgDuIGSn9WfB68-3" target="ufzjEFwgDuIGSn9WfB68-64" edge="1">
          <mxGeometry relative="1" as="geometry" />
        </mxCell>
        <mxCell id="ufzjEFwgDuIGSn9WfB68-134" style="rounded=0;orthogonalLoop=1;jettySize=auto;html=1;exitX=0.827;exitY=0.117;exitDx=0;exitDy=0;entryX=0.5;entryY=0;entryDx=0;entryDy=0;startArrow=classic;startFill=1;strokeWidth=2;edgeStyle=orthogonalEdgeStyle;curved=1;exitPerimeter=0;" parent="1" source="ufzjEFwgDuIGSn9WfB68-3" target="ufzjEFwgDuIGSn9WfB68-69" edge="1">
          <mxGeometry relative="1" as="geometry">
            <Array as="points">
              <mxPoint x="380" y="200" />
              <mxPoint x="980" y="200" />
            </Array>
          </mxGeometry>
        </mxCell>
        <mxCell id="ufzjEFwgDuIGSn9WfB68-146" style="edgeStyle=orthogonalEdgeStyle;rounded=0;orthogonalLoop=1;jettySize=auto;html=1;exitX=1;exitY=0.5;exitDx=0;exitDy=0;startArrow=classic;startFill=1;strokeWidth=2;entryX=1;entryY=0.5;entryDx=0;entryDy=0;curved=1;" parent="1" source="ufzjEFwgDuIGSn9WfB68-3" target="ufzjEFwgDuIGSn9WfB68-5" edge="1">
          <mxGeometry relative="1" as="geometry">
            <mxPoint x="400" y="910" as="targetPoint" />
            <Array as="points">
              <mxPoint x="460" y="410" />
              <mxPoint x="460" y="910" />
            </Array>
          </mxGeometry>
        </mxCell>
        <mxCell id="ufzjEFwgDuIGSn9WfB68-3" value="&lt;font style=&quot;font-size: 26px;&quot; face=&quot;Times New Roman&quot;&gt;S&lt;sub&gt;2&lt;/sub&gt;&lt;/font&gt;" style="ellipse;whiteSpace=wrap;html=1;aspect=fixed;strokeWidth=2;" parent="1" vertex="1">
          <mxGeometry x="330" y="380" width="60" height="60" as="geometry" />
        </mxCell>
        <mxCell id="ufzjEFwgDuIGSn9WfB68-45" style="edgeStyle=orthogonalEdgeStyle;rounded=0;orthogonalLoop=1;jettySize=auto;html=1;exitX=0.5;exitY=1;exitDx=0;exitDy=0;entryX=0.5;entryY=0;entryDx=0;entryDy=0;strokeWidth=2;startArrow=classic;startFill=1;" parent="1" source="ufzjEFwgDuIGSn9WfB68-4" target="ufzjEFwgDuIGSn9WfB68-5" edge="1">
          <mxGeometry relative="1" as="geometry" />
        </mxCell>
        <mxCell id="ufzjEFwgDuIGSn9WfB68-172" style="rounded=0;orthogonalLoop=1;jettySize=auto;html=1;exitX=1;exitY=0.5;exitDx=0;exitDy=0;entryX=0;entryY=0.633;entryDx=0;entryDy=0;entryPerimeter=0;startArrow=classic;startFill=1;strokeWidth=2;" parent="1" source="ufzjEFwgDuIGSn9WfB68-4" target="ufzjEFwgDuIGSn9WfB68-64" edge="1">
          <mxGeometry relative="1" as="geometry" />
        </mxCell>
        <mxCell id="ufzjEFwgDuIGSn9WfB68-175" style="rounded=0;orthogonalLoop=1;jettySize=auto;html=1;exitX=1;exitY=1;exitDx=0;exitDy=0;entryX=0.5;entryY=1;entryDx=0;entryDy=0;strokeWidth=2;startArrow=classic;startFill=1;edgeStyle=orthogonalEdgeStyle;curved=1;" parent="1" source="ufzjEFwgDuIGSn9WfB68-4" target="ufzjEFwgDuIGSn9WfB68-69" edge="1">
          <mxGeometry relative="1" as="geometry">
            <Array as="points">
              <mxPoint x="381" y="840" />
              <mxPoint x="980" y="840" />
            </Array>
          </mxGeometry>
        </mxCell>
        <mxCell id="ufzjEFwgDuIGSn9WfB68-4" value="&lt;font style=&quot;font-size: 26px;&quot; face=&quot;Times New Roman&quot;&gt;S&lt;sub&gt;3&lt;/sub&gt;&lt;/font&gt;" style="ellipse;whiteSpace=wrap;html=1;aspect=fixed;strokeWidth=2;" parent="1" vertex="1">
          <mxGeometry x="330" y="630" width="60" height="60" as="geometry" />
        </mxCell>
        <mxCell id="ufzjEFwgDuIGSn9WfB68-182" style="rounded=0;orthogonalLoop=1;jettySize=auto;html=1;exitX=1;exitY=0.5;exitDx=0;exitDy=0;entryX=0;entryY=1;entryDx=0;entryDy=0;startArrow=none;startFill=0;strokeWidth=2;endArrow=classic;endFill=1;" parent="1" source="ufzjEFwgDuIGSn9WfB68-5" target="ufzjEFwgDuIGSn9WfB68-69" edge="1">
          <mxGeometry relative="1" as="geometry" />
        </mxCell>
        <mxCell id="ufzjEFwgDuIGSn9WfB68-5" value="&lt;font style=&quot;font-size: 26px;&quot; face=&quot;Times New Roman&quot;&gt;S&lt;sub&gt;4&lt;/sub&gt;&lt;/font&gt;" style="ellipse;whiteSpace=wrap;html=1;aspect=fixed;strokeWidth=2;" parent="1" vertex="1">
          <mxGeometry x="330" y="880" width="60" height="60" as="geometry" />
        </mxCell>
        <mxCell id="ufzjEFwgDuIGSn9WfB68-14" value="" style="group" parent="1" vertex="1" connectable="0">
          <mxGeometry x="137.9980592228744" y="255.9980592228744" width="118.00194077712561" height="105.92388155425127" as="geometry" />
        </mxCell>
        <mxCell id="ufzjEFwgDuIGSn9WfB68-12" value="" style="endArrow=async;html=1;rounded=0;endFill=1;strokeWidth=2;" parent="ufzjEFwgDuIGSn9WfB68-14" edge="1">
          <mxGeometry width="50" height="50" relative="1" as="geometry">
            <mxPoint x="26.96194077712559" y="89.96194077712562" as="sourcePoint" />
            <mxPoint x="96.96194077712559" y="19.96194077712562" as="targetPoint" />
          </mxGeometry>
        </mxCell>
        <mxCell id="ufzjEFwgDuIGSn9WfB68-13" value="&lt;font style=&quot;font-size: 22px;&quot; face=&quot;Times New Roman&quot;&gt;P;Ï/I?Ï&lt;/font&gt;" style="text;html=1;align=center;verticalAlign=middle;resizable=0;points=[];autosize=1;strokeColor=none;fillColor=none;rotation=-45;" parent="ufzjEFwgDuIGSn9WfB68-14" vertex="1">
          <mxGeometry x="0.9619407771255908" y="25.96194077712562" width="90" height="40" as="geometry" />
        </mxCell>
        <mxCell id="ufzjEFwgDuIGSn9WfB68-15" value="" style="group" parent="ufzjEFwgDuIGSn9WfB68-14" vertex="1" connectable="0">
          <mxGeometry x="12.000000000000028" y="14.000000000000028" width="106.00194077712558" height="91.92388155425124" as="geometry" />
        </mxCell>
        <mxCell id="ufzjEFwgDuIGSn9WfB68-16" value="" style="endArrow=async;html=1;rounded=0;endFill=1;strokeWidth=2;" parent="ufzjEFwgDuIGSn9WfB68-15" edge="1">
          <mxGeometry width="50" height="50" relative="1" as="geometry">
            <mxPoint x="96.96194077712559" y="19.96194077712562" as="sourcePoint" />
            <mxPoint x="26.96194077712559" y="89.96194077712562" as="targetPoint" />
          </mxGeometry>
        </mxCell>
        <mxCell id="ufzjEFwgDuIGSn9WfB68-17" value="&lt;font style=&quot;font-size: 22px;&quot; face=&quot;Times New Roman&quot;&gt;&lt;b&gt;#&lt;/b&gt;;&lt;/font&gt;&lt;font style=&quot;font-size: 22px;&quot; face=&quot;Times New Roman&quot;&gt;Ï/Ï&lt;/font&gt;" style="text;html=1;align=center;verticalAlign=middle;resizable=0;points=[];autosize=1;strokeColor=none;fillColor=none;rotation=-45;" parent="ufzjEFwgDuIGSn9WfB68-15" vertex="1">
          <mxGeometry x="36.00194077712559" y="42.00194077712562" width="70" height="40" as="geometry" />
        </mxCell>
        <mxCell id="ufzjEFwgDuIGSn9WfB68-24" value="&lt;font style=&quot;font-size: 22px;&quot; face=&quot;Times New Roman&quot;&gt;&lt;b&gt;#&lt;/b&gt;;&lt;/font&gt;&lt;font style=&quot;font-size: 22px;&quot; face=&quot;Times New Roman&quot;&gt;Ï/Ï&lt;/font&gt;" style="text;html=1;align=center;verticalAlign=middle;resizable=0;points=[];autosize=1;strokeColor=none;fillColor=none;rotation=-20;" parent="1" vertex="1">
          <mxGeometry x="195" y="457" width="70" height="40" as="geometry" />
        </mxCell>
        <mxCell id="ufzjEFwgDuIGSn9WfB68-21" value="&lt;font style=&quot;font-size: 22px;&quot; face=&quot;Times New Roman&quot;&gt;H;Ï/S?Ï&lt;/font&gt;" style="text;html=1;align=center;verticalAlign=middle;resizable=0;points=[];autosize=1;strokeColor=none;fillColor=none;rotation=-20;" parent="1" vertex="1">
          <mxGeometry x="155" y="417.00000000000006" width="100" height="40" as="geometry" />
        </mxCell>
        <mxCell id="ufzjEFwgDuIGSn9WfB68-20" value="" style="endArrow=async;html=1;rounded=0;endFill=1;strokeWidth=2;" parent="1" edge="1">
          <mxGeometry width="50" height="50" relative="1" as="geometry">
            <mxPoint x="170" y="467" as="sourcePoint" />
            <mxPoint x="263" y="432" as="targetPoint" />
          </mxGeometry>
        </mxCell>
        <mxCell id="ufzjEFwgDuIGSn9WfB68-27" value="" style="endArrow=async;html=1;rounded=0;endFill=1;strokeWidth=2;" parent="1" edge="1">
          <mxGeometry width="50" height="50" relative="1" as="geometry">
            <mxPoint x="271" y="449" as="sourcePoint" />
            <mxPoint x="178" y="484" as="targetPoint" />
          </mxGeometry>
        </mxCell>
        <mxCell id="ufzjEFwgDuIGSn9WfB68-28" value="&lt;font style=&quot;font-size: 22px;&quot; face=&quot;Times New Roman&quot;&gt;O;Ï/O?Ï&lt;/font&gt;" style="text;html=1;align=center;verticalAlign=middle;resizable=0;points=[];autosize=1;strokeColor=none;fillColor=none;rotation=25;" parent="1" vertex="1">
          <mxGeometry x="157" y="554" width="100" height="40" as="geometry" />
        </mxCell>
        <mxCell id="ufzjEFwgDuIGSn9WfB68-29" value="" style="endArrow=async;html=1;rounded=0;endFill=1;strokeWidth=2;" parent="1" edge="1">
          <mxGeometry width="50" height="50" relative="1" as="geometry">
            <mxPoint x="162" y="570" as="sourcePoint" />
            <mxPoint x="250" y="610" as="targetPoint" />
          </mxGeometry>
        </mxCell>
        <mxCell id="ufzjEFwgDuIGSn9WfB68-30" value="" style="endArrow=async;html=1;rounded=0;endFill=1;strokeWidth=2;" parent="1" edge="1">
          <mxGeometry width="50" height="50" relative="1" as="geometry">
            <mxPoint x="243" y="626" as="sourcePoint" />
            <mxPoint x="155" y="586" as="targetPoint" />
          </mxGeometry>
        </mxCell>
        <mxCell id="ufzjEFwgDuIGSn9WfB68-32" value="&lt;font style=&quot;font-size: 22px;&quot; face=&quot;Times New Roman&quot;&gt;&lt;b&gt;#&lt;/b&gt;;&lt;/font&gt;&lt;font style=&quot;font-size: 22px;&quot; face=&quot;Times New Roman&quot;&gt;Ï/Ï&lt;/font&gt;" style="text;html=1;align=center;verticalAlign=middle;resizable=0;points=[];autosize=1;strokeColor=none;fillColor=none;rotation=30;" parent="1" vertex="1">
          <mxGeometry x="160" y="600" width="70" height="40" as="geometry" />
        </mxCell>
        <mxCell id="ufzjEFwgDuIGSn9WfB68-37" value="" style="endArrow=async;html=1;rounded=0;endFill=1;strokeWidth=2;" parent="1" edge="1">
          <mxGeometry width="50" height="50" relative="1" as="geometry">
            <mxPoint x="164" y="690" as="sourcePoint" />
            <mxPoint x="230" y="770" as="targetPoint" />
          </mxGeometry>
        </mxCell>
        <mxCell id="ufzjEFwgDuIGSn9WfB68-39" value="&lt;font style=&quot;font-size: 22px;&quot; face=&quot;Times New Roman&quot;&gt;R;Ï/Ï&lt;/font&gt;" style="text;html=1;align=center;verticalAlign=middle;resizable=0;points=[];autosize=1;strokeColor=none;fillColor=none;rotation=50;" parent="1" vertex="1">
          <mxGeometry x="164" y="695" width="80" height="40" as="geometry" />
        </mxCell>
        <mxCell id="ufzjEFwgDuIGSn9WfB68-41" value="" style="endArrow=async;html=1;rounded=0;endFill=1;strokeWidth=2;" parent="1" edge="1">
          <mxGeometry width="50" height="50" relative="1" as="geometry">
            <mxPoint x="216" y="780" as="sourcePoint" />
            <mxPoint x="150" y="700" as="targetPoint" />
          </mxGeometry>
        </mxCell>
        <mxCell id="ufzjEFwgDuIGSn9WfB68-42" value="&lt;font style=&quot;font-size: 22px;&quot; face=&quot;Times New Roman&quot;&gt;&lt;b&gt;#&lt;/b&gt;;&lt;/font&gt;&lt;font style=&quot;font-size: 22px;&quot; face=&quot;Times New Roman&quot;&gt;Ï/Ï&lt;/font&gt;" style="text;html=1;align=center;verticalAlign=middle;resizable=0;points=[];autosize=1;strokeColor=none;fillColor=none;rotation=45;" parent="1" vertex="1">
          <mxGeometry x="140" y="728" width="70" height="40" as="geometry" />
        </mxCell>
        <mxCell id="ufzjEFwgDuIGSn9WfB68-46" value="" style="group;rotation=-45;" parent="1" vertex="1" connectable="0">
          <mxGeometry x="289.9980592228744" y="219.99805922287442" width="142" height="105.92388155425127" as="geometry" />
        </mxCell>
        <mxCell id="ufzjEFwgDuIGSn9WfB68-47" value="" style="endArrow=async;html=1;rounded=0;endFill=1;strokeWidth=2;" parent="ufzjEFwgDuIGSn9WfB68-46" edge="1">
          <mxGeometry width="50" height="50" relative="1" as="geometry">
            <mxPoint x="63" y="102" as="sourcePoint" />
            <mxPoint x="62" y="2" as="targetPoint" />
          </mxGeometry>
        </mxCell>
        <mxCell id="ufzjEFwgDuIGSn9WfB68-48" value="&lt;font style=&quot;font-size: 22px;&quot; face=&quot;Times New Roman&quot;&gt;P;Ï/I?Ï&lt;/font&gt;" style="text;html=1;align=center;verticalAlign=middle;resizable=0;points=[];autosize=1;strokeColor=none;fillColor=none;rotation=-90;" parent="ufzjEFwgDuIGSn9WfB68-46" vertex="1">
          <mxGeometry y="37" width="90" height="40" as="geometry" />
        </mxCell>
        <mxCell id="ufzjEFwgDuIGSn9WfB68-49" value="" style="group;rotation=-45;" parent="ufzjEFwgDuIGSn9WfB68-46" vertex="1" connectable="0">
          <mxGeometry x="15" y="8" width="127" height="91.92388155425124" as="geometry" />
        </mxCell>
        <mxCell id="ufzjEFwgDuIGSn9WfB68-50" value="" style="endArrow=async;html=1;rounded=0;endFill=1;strokeWidth=2;" parent="ufzjEFwgDuIGSn9WfB68-49" edge="1">
          <mxGeometry width="50" height="50" relative="1" as="geometry">
            <mxPoint x="65" y="-4" as="sourcePoint" />
            <mxPoint x="65" y="95" as="targetPoint" />
          </mxGeometry>
        </mxCell>
        <mxCell id="ufzjEFwgDuIGSn9WfB68-51" value="&lt;font style=&quot;font-size: 22px;&quot; face=&quot;Times New Roman&quot;&gt;H;Ï/S?Ï&lt;/font&gt;" style="text;html=1;align=center;verticalAlign=middle;resizable=0;points=[];autosize=1;strokeColor=none;fillColor=none;rotation=-90;" parent="ufzjEFwgDuIGSn9WfB68-49" vertex="1">
          <mxGeometry x="27" y="24" width="100" height="40" as="geometry" />
        </mxCell>
        <mxCell id="ufzjEFwgDuIGSn9WfB68-52" value="" style="group;rotation=-45;" parent="1" vertex="1" connectable="0">
          <mxGeometry x="289.9980592228744" y="729.9980592228744" width="147" height="105.92388155425127" as="geometry" />
        </mxCell>
        <mxCell id="ufzjEFwgDuIGSn9WfB68-53" value="" style="endArrow=async;html=1;rounded=0;endFill=1;strokeWidth=2;" parent="ufzjEFwgDuIGSn9WfB68-52" edge="1">
          <mxGeometry width="50" height="50" relative="1" as="geometry">
            <mxPoint x="63" y="102" as="sourcePoint" />
            <mxPoint x="62" y="2" as="targetPoint" />
          </mxGeometry>
        </mxCell>
        <mxCell id="ufzjEFwgDuIGSn9WfB68-54" value="&lt;font style=&quot;font-size: 22px;&quot; face=&quot;Times New Roman&quot;&gt;O;Ï/O?Ï&lt;/font&gt;" style="text;html=1;align=center;verticalAlign=middle;resizable=0;points=[];autosize=1;strokeColor=none;fillColor=none;rotation=-90;" parent="ufzjEFwgDuIGSn9WfB68-52" vertex="1">
          <mxGeometry x="-5" y="37" width="100" height="40" as="geometry" />
        </mxCell>
        <mxCell id="ufzjEFwgDuIGSn9WfB68-55" value="" style="group;rotation=-45;" parent="ufzjEFwgDuIGSn9WfB68-52" vertex="1" connectable="0">
          <mxGeometry x="15" y="8" width="132" height="91.92388155425124" as="geometry" />
        </mxCell>
        <mxCell id="ufzjEFwgDuIGSn9WfB68-56" value="" style="endArrow=async;html=1;rounded=0;endFill=1;strokeWidth=2;" parent="ufzjEFwgDuIGSn9WfB68-55" edge="1">
          <mxGeometry width="50" height="50" relative="1" as="geometry">
            <mxPoint x="65" y="-4" as="sourcePoint" />
            <mxPoint x="65" y="95" as="targetPoint" />
          </mxGeometry>
        </mxCell>
        <mxCell id="ufzjEFwgDuIGSn9WfB68-57" value="&lt;font style=&quot;font-size: 22px;&quot; face=&quot;Times New Roman&quot;&gt;R;Ï/Ï&lt;/font&gt;" style="text;html=1;align=center;verticalAlign=middle;resizable=0;points=[];autosize=1;strokeColor=none;fillColor=none;rotation=-90;" parent="ufzjEFwgDuIGSn9WfB68-55" vertex="1">
          <mxGeometry x="37" y="24" width="80" height="40" as="geometry" />
        </mxCell>
        <mxCell id="ufzjEFwgDuIGSn9WfB68-58" value="" style="group;rotation=-45;" parent="1" vertex="1" connectable="0">
          <mxGeometry x="289.9980592228744" y="479.9980592228744" width="142" height="145.91999999999996" as="geometry" />
        </mxCell>
        <mxCell id="ufzjEFwgDuIGSn9WfB68-59" value="" style="endArrow=async;html=1;rounded=0;endFill=1;strokeWidth=2;" parent="ufzjEFwgDuIGSn9WfB68-58" edge="1">
          <mxGeometry width="50" height="50" relative="1" as="geometry">
            <mxPoint x="63" y="102" as="sourcePoint" />
            <mxPoint x="62" y="2" as="targetPoint" />
          </mxGeometry>
        </mxCell>
        <mxCell id="ufzjEFwgDuIGSn9WfB68-60" value="&lt;font style=&quot;font-size: 22px;&quot; face=&quot;Times New Roman&quot;&gt;H;Ï/S?Ï&lt;/font&gt;" style="text;html=1;align=center;verticalAlign=middle;resizable=0;points=[];autosize=1;strokeColor=none;fillColor=none;rotation=-90;" parent="ufzjEFwgDuIGSn9WfB68-58" vertex="1">
          <mxGeometry x="-5" y="37" width="100" height="40" as="geometry" />
        </mxCell>
        <mxCell id="ufzjEFwgDuIGSn9WfB68-61" value="" style="group;rotation=-45;" parent="ufzjEFwgDuIGSn9WfB68-58" vertex="1" connectable="0">
          <mxGeometry x="15" y="8" width="127" height="91.92388155425124" as="geometry" />
        </mxCell>
        <mxCell id="ufzjEFwgDuIGSn9WfB68-62" value="" style="endArrow=async;html=1;rounded=0;endFill=1;strokeWidth=2;" parent="ufzjEFwgDuIGSn9WfB68-61" edge="1">
          <mxGeometry width="50" height="50" relative="1" as="geometry">
            <mxPoint x="65" y="-4" as="sourcePoint" />
            <mxPoint x="65" y="95" as="targetPoint" />
          </mxGeometry>
        </mxCell>
        <mxCell id="ufzjEFwgDuIGSn9WfB68-63" value="&lt;font style=&quot;font-size: 22px;&quot; face=&quot;Times New Roman&quot;&gt;O;Ï/O?Ï&lt;/font&gt;" style="text;html=1;align=center;verticalAlign=middle;resizable=0;points=[];autosize=1;strokeColor=none;fillColor=none;rotation=-90;" parent="ufzjEFwgDuIGSn9WfB68-61" vertex="1">
          <mxGeometry x="27" y="24" width="100" height="40" as="geometry" />
        </mxCell>
        <mxCell id="ufzjEFwgDuIGSn9WfB68-154" value="&lt;font style=&quot;font-size: 22px;&quot; face=&quot;Times New Roman&quot;&gt;O;Ï/O?Ï&lt;/font&gt;" style="text;html=1;align=center;verticalAlign=middle;resizable=0;points=[];autosize=1;strokeColor=none;fillColor=none;rotation=0;" parent="ufzjEFwgDuIGSn9WfB68-58" vertex="1">
          <mxGeometry x="-24" y="95.91999999999996" width="100" height="40" as="geometry" />
        </mxCell>
        <mxCell id="ufzjEFwgDuIGSn9WfB68-158" style="edgeStyle=orthogonalEdgeStyle;rounded=0;orthogonalLoop=1;jettySize=auto;html=1;exitX=0.5;exitY=0;exitDx=0;exitDy=0;entryX=0.5;entryY=0;entryDx=0;entryDy=0;strokeWidth=2;curved=1;" parent="1" source="ufzjEFwgDuIGSn9WfB68-64" target="ufzjEFwgDuIGSn9WfB68-1" edge="1">
          <mxGeometry relative="1" as="geometry">
            <Array as="points">
              <mxPoint x="710" y="40" />
              <mxPoint x="10" y="40" />
            </Array>
          </mxGeometry>
        </mxCell>
        <mxCell id="ufzjEFwgDuIGSn9WfB68-163" style="rounded=0;orthogonalLoop=1;jettySize=auto;html=1;exitX=0;exitY=1;exitDx=0;exitDy=0;entryX=1;entryY=0;entryDx=0;entryDy=0;startArrow=none;startFill=0;strokeWidth=2;endArrow=classic;endFill=1;" parent="1" source="ufzjEFwgDuIGSn9WfB68-64" target="ufzjEFwgDuIGSn9WfB68-5" edge="1">
          <mxGeometry relative="1" as="geometry" />
        </mxCell>
        <mxCell id="ufzjEFwgDuIGSn9WfB68-189" style="edgeStyle=orthogonalEdgeStyle;rounded=0;orthogonalLoop=1;jettySize=auto;html=1;exitX=1;exitY=0.5;exitDx=0;exitDy=0;entryX=0;entryY=0.5;entryDx=0;entryDy=0;strokeWidth=2;" parent="1" source="ufzjEFwgDuIGSn9WfB68-64" target="ufzjEFwgDuIGSn9WfB68-69" edge="1">
          <mxGeometry relative="1" as="geometry" />
        </mxCell>
        <mxCell id="ufzjEFwgDuIGSn9WfB68-64" value="&lt;font style=&quot;font-size: 26px;&quot; face=&quot;Times New Roman&quot;&gt;S&lt;sub&gt;5&lt;/sub&gt;&lt;/font&gt;" style="ellipse;whiteSpace=wrap;html=1;aspect=fixed;strokeWidth=2;" parent="1" vertex="1">
          <mxGeometry x="680" y="490" width="60" height="60" as="geometry" />
        </mxCell>
        <mxCell id="ufzjEFwgDuIGSn9WfB68-199" style="edgeStyle=orthogonalEdgeStyle;rounded=0;orthogonalLoop=1;jettySize=auto;html=1;exitX=1;exitY=0.5;exitDx=0;exitDy=0;strokeWidth=2;" parent="1" source="ufzjEFwgDuIGSn9WfB68-69" target="ufzjEFwgDuIGSn9WfB68-70" edge="1">
          <mxGeometry relative="1" as="geometry" />
        </mxCell>
        <mxCell id="ufzjEFwgDuIGSn9WfB68-69" value="&lt;div&gt;&lt;font style=&quot;font-size: 26px;&quot; face=&quot;Times New Roman&quot;&gt;S&lt;sub&gt;6&lt;/sub&gt;&lt;/font&gt;&lt;/div&gt;" style="ellipse;whiteSpace=wrap;html=1;aspect=fixed;strokeWidth=2;" parent="1" vertex="1">
          <mxGeometry x="950" y="490" width="60" height="60" as="geometry" />
        </mxCell>
        <mxCell id="ufzjEFwgDuIGSn9WfB68-72" style="edgeStyle=orthogonalEdgeStyle;rounded=0;orthogonalLoop=1;jettySize=auto;html=1;exitX=0.5;exitY=0;exitDx=0;exitDy=0;strokeWidth=2;startArrow=classic;startFill=1;curved=1;" parent="1" source="ufzjEFwgDuIGSn9WfB68-70" target="ufzjEFwgDuIGSn9WfB68-1" edge="1">
          <mxGeometry relative="1" as="geometry">
            <mxPoint x="10" y="380" as="targetPoint" />
            <Array as="points">
              <mxPoint x="1250" y="70" />
              <mxPoint x="10" y="70" />
            </Array>
          </mxGeometry>
        </mxCell>
        <mxCell id="ufzjEFwgDuIGSn9WfB68-211" style="edgeStyle=orthogonalEdgeStyle;rounded=0;orthogonalLoop=1;jettySize=auto;html=1;exitX=0;exitY=0;exitDx=0;exitDy=0;entryX=0.964;entryY=0.269;entryDx=0;entryDy=0;entryPerimeter=0;curved=1;strokeWidth=2;" parent="1" source="ufzjEFwgDuIGSn9WfB68-70" target="ufzjEFwgDuIGSn9WfB68-3" edge="1">
          <mxGeometry relative="1" as="geometry">
            <Array as="points">
              <mxPoint x="1229" y="396" />
            </Array>
          </mxGeometry>
        </mxCell>
        <mxCell id="ufzjEFwgDuIGSn9WfB68-216" style="edgeStyle=orthogonalEdgeStyle;rounded=0;orthogonalLoop=1;jettySize=auto;html=1;exitX=0;exitY=1;exitDx=0;exitDy=0;entryX=0.95;entryY=0.742;entryDx=0;entryDy=0;entryPerimeter=0;curved=1;strokeWidth=2;" parent="1" source="ufzjEFwgDuIGSn9WfB68-70" target="ufzjEFwgDuIGSn9WfB68-4" edge="1">
          <mxGeometry relative="1" as="geometry">
            <Array as="points">
              <mxPoint x="1229" y="675" />
            </Array>
          </mxGeometry>
        </mxCell>
        <mxCell id="ufzjEFwgDuIGSn9WfB68-70" value="&lt;font style=&quot;font-size: 26px;&quot; face=&quot;Times New Roman&quot;&gt;S&lt;sub&gt;7&lt;/sub&gt;&lt;/font&gt;" style="ellipse;whiteSpace=wrap;html=1;aspect=fixed;strokeWidth=2;" parent="1" vertex="1">
          <mxGeometry x="1220" y="490" width="60" height="60" as="geometry" />
        </mxCell>
        <mxCell id="ufzjEFwgDuIGSn9WfB68-71" value="&lt;font style=&quot;font-size: 22px;&quot; face=&quot;Times New Roman&quot;&gt;C;^&lt;/font&gt;&lt;font style=&quot;font-size: 22px;&quot; face=&quot;Times New Roman&quot;&gt;&lt;/font&gt;&lt;font style=&quot;font-size: 25px;&quot; face=&quot;Times New Roman&quot;&gt;Îµ&lt;/font&gt;&lt;font style=&quot;font-size: 22px;&quot; face=&quot;Times New Roman&quot;&gt;&lt;/font&gt;&lt;font style=&quot;font-size: 22px;&quot; face=&quot;Times New Roman&quot;&gt;/&lt;/font&gt;&lt;font style=&quot;font-size: 22px;&quot; face=&quot;Times New Roman&quot;&gt;^&lt;/font&gt;&lt;font style=&quot;font-size: 25px;&quot; face=&quot;Times New Roman&quot;&gt;Îµ&lt;/font&gt;" style="text;html=1;align=center;verticalAlign=middle;resizable=0;points=[];autosize=1;strokeColor=none;fillColor=none;rotation=50;" parent="1" vertex="1">
          <mxGeometry x="175" y="680" width="90" height="40" as="geometry" />
        </mxCell>
        <mxCell id="ufzjEFwgDuIGSn9WfB68-73" value="" style="group;rotation=55;" parent="1" vertex="1" connectable="0">
          <mxGeometry x="759.9980592228744" y="28.998059222874417" width="142" height="105.92388155425127" as="geometry" />
        </mxCell>
        <mxCell id="ufzjEFwgDuIGSn9WfB68-74" value="" style="endArrow=async;html=1;rounded=0;endFill=1;strokeWidth=2;" parent="ufzjEFwgDuIGSn9WfB68-73" edge="1">
          <mxGeometry width="50" height="50" relative="1" as="geometry">
            <mxPoint x="24" y="37" as="sourcePoint" />
            <mxPoint x="123" y="54" as="targetPoint" />
          </mxGeometry>
        </mxCell>
        <mxCell id="ufzjEFwgDuIGSn9WfB68-75" value="&lt;font style=&quot;font-size: 22px;&quot; face=&quot;Times New Roman&quot;&gt;T;E/E&lt;/font&gt;" style="text;html=1;align=center;verticalAlign=middle;resizable=0;points=[];autosize=1;strokeColor=none;fillColor=none;rotation=10;" parent="ufzjEFwgDuIGSn9WfB68-73" vertex="1">
          <mxGeometry x="37" y="7" width="70" height="40" as="geometry" />
        </mxCell>
        <mxCell id="ufzjEFwgDuIGSn9WfB68-76" value="" style="group;rotation=55;" parent="ufzjEFwgDuIGSn9WfB68-73" vertex="1" connectable="0">
          <mxGeometry x="5" y="14" width="127" height="91.92388155425124" as="geometry" />
        </mxCell>
        <mxCell id="ufzjEFwgDuIGSn9WfB68-77" value="" style="endArrow=async;html=1;rounded=0;endFill=1;strokeWidth=2;" parent="ufzjEFwgDuIGSn9WfB68-76" edge="1">
          <mxGeometry width="50" height="50" relative="1" as="geometry">
            <mxPoint x="112" y="57" as="sourcePoint" />
            <mxPoint x="14" y="39" as="targetPoint" />
          </mxGeometry>
        </mxCell>
        <mxCell id="ufzjEFwgDuIGSn9WfB68-78" value="&lt;font style=&quot;font-size: 22px;&quot; face=&quot;Times New Roman&quot;&gt;&lt;b&gt;#&lt;/b&gt;;E/E&lt;/font&gt;" style="text;html=1;align=center;verticalAlign=middle;resizable=0;points=[];autosize=1;strokeColor=none;fillColor=none;rotation=10;" parent="ufzjEFwgDuIGSn9WfB68-76" vertex="1">
          <mxGeometry x="28" y="39" width="70" height="40" as="geometry" />
        </mxCell>
        <mxCell id="ufzjEFwgDuIGSn9WfB68-79" value="&lt;font style=&quot;font-size: 22px;&quot; face=&quot;Times New Roman&quot;&gt;C;&lt;/font&gt;&lt;font style=&quot;font-size: 22px;&quot; face=&quot;Times New Roman&quot;&gt;&lt;/font&gt;&lt;font style=&quot;font-size: 25px;&quot; face=&quot;Times New Roman&quot;&gt;Îµ&lt;/font&gt;&lt;font style=&quot;font-size: 22px;&quot; face=&quot;Times New Roman&quot;&gt;&lt;/font&gt;&lt;font style=&quot;font-size: 22px;&quot;&gt;/&lt;/font&gt;&lt;font style=&quot;font-size: 25px;&quot; face=&quot;Times New Roman&quot;&gt;Îµ&lt;/font&gt;" style="text;html=1;align=center;verticalAlign=middle;resizable=0;points=[];autosize=1;strokeColor=none;fillColor=none;rotation=10;" parent="ufzjEFwgDuIGSn9WfB68-73" vertex="1">
          <mxGeometry x="37" y="-18" width="70" height="40" as="geometry" />
        </mxCell>
        <mxCell id="ufzjEFwgDuIGSn9WfB68-82" style="edgeStyle=orthogonalEdgeStyle;rounded=0;orthogonalLoop=1;jettySize=auto;html=1;strokeWidth=2;entryX=0.833;entryY=0;entryDx=0;entryDy=0;curved=1;entryPerimeter=0;" parent="1" edge="1">
          <mxGeometry relative="1" as="geometry">
            <mxPoint x="370" y="130" as="sourcePoint" />
            <mxPoint x="379.9800000000005" y="140" as="targetPoint" />
            <Array as="points">
              <mxPoint x="370" y="100" />
              <mxPoint x="410" y="100" />
              <mxPoint x="410" y="140" />
            </Array>
          </mxGeometry>
        </mxCell>
        <mxCell id="ufzjEFwgDuIGSn9WfB68-83" value="&lt;font style=&quot;font-size: 22px;&quot; face=&quot;Times New Roman&quot;&gt;P;Ï/I?Ï&lt;/font&gt;" style="text;html=1;align=center;verticalAlign=middle;resizable=0;points=[];autosize=1;strokeColor=none;fillColor=none;rotation=0;" parent="1" vertex="1">
          <mxGeometry x="399.9980592228744" y="97.91805922287442" width="90" height="40" as="geometry" />
        </mxCell>
        <mxCell id="ufzjEFwgDuIGSn9WfB68-85" value="" style="group;rotation=-45;" parent="1" vertex="1" connectable="0">
          <mxGeometry x="-150.00194077712558" y="459.9980592228744" width="142" height="105.92388155425127" as="geometry" />
        </mxCell>
        <mxCell id="ufzjEFwgDuIGSn9WfB68-86" value="" style="endArrow=async;html=1;rounded=0;endFill=1;strokeWidth=2;" parent="ufzjEFwgDuIGSn9WfB68-85" edge="1">
          <mxGeometry width="50" height="50" relative="1" as="geometry">
            <mxPoint x="64" y="102" as="sourcePoint" />
            <mxPoint x="63" y="1" as="targetPoint" />
          </mxGeometry>
        </mxCell>
        <mxCell id="ufzjEFwgDuIGSn9WfB68-88" value="" style="group;rotation=-45;" parent="ufzjEFwgDuIGSn9WfB68-85" vertex="1" connectable="0">
          <mxGeometry x="14" y="9" width="127" height="91.92388155425124" as="geometry" />
        </mxCell>
        <mxCell id="ufzjEFwgDuIGSn9WfB68-89" value="" style="endArrow=async;html=1;rounded=0;endFill=1;strokeWidth=2;" parent="ufzjEFwgDuIGSn9WfB68-88" edge="1">
          <mxGeometry width="50" height="50" relative="1" as="geometry">
            <mxPoint x="65" y="-3" as="sourcePoint" />
            <mxPoint x="66" y="95" as="targetPoint" />
          </mxGeometry>
        </mxCell>
        <mxCell id="ufzjEFwgDuIGSn9WfB68-90" value="&lt;font style=&quot;font-size: 22px;&quot; face=&quot;Times New Roman&quot;&gt;P;Ï/I?Ï&lt;/font&gt;" style="text;html=1;align=center;verticalAlign=middle;resizable=0;points=[];autosize=1;strokeColor=none;fillColor=none;rotation=-90;" parent="ufzjEFwgDuIGSn9WfB68-88" vertex="1">
          <mxGeometry x="-13" y="25.96" width="90" height="40" as="geometry" />
        </mxCell>
        <mxCell id="ufzjEFwgDuIGSn9WfB68-87" value="&lt;font style=&quot;font-size: 22px;&quot; face=&quot;Times New Roman&quot;&gt;R;Ï/Ï&lt;/font&gt;" style="text;html=1;align=center;verticalAlign=middle;resizable=0;points=[];autosize=1;strokeColor=none;fillColor=none;rotation=-90;" parent="ufzjEFwgDuIGSn9WfB68-88" vertex="1">
          <mxGeometry x="37" y="25.960000000000036" width="80" height="40" as="geometry" />
        </mxCell>
        <mxCell id="ufzjEFwgDuIGSn9WfB68-93" value="" style="group;rotation=-45;" parent="1" vertex="1" connectable="0">
          <mxGeometry x="378.9980592228744" y="289.9980592228744" width="142" height="105.92388155425127" as="geometry" />
        </mxCell>
        <mxCell id="ufzjEFwgDuIGSn9WfB68-94" value="" style="endArrow=async;html=1;rounded=0;endFill=1;strokeWidth=2;" parent="ufzjEFwgDuIGSn9WfB68-93" edge="1">
          <mxGeometry width="50" height="50" relative="1" as="geometry">
            <mxPoint x="63" y="102" as="sourcePoint" />
            <mxPoint x="62" y="2" as="targetPoint" />
          </mxGeometry>
        </mxCell>
        <mxCell id="ufzjEFwgDuIGSn9WfB68-95" value="&lt;font style=&quot;font-size: 22px;&quot; face=&quot;Times New Roman&quot;&gt;P;Ï/I?Ï&lt;/font&gt;" style="text;html=1;align=center;verticalAlign=middle;resizable=0;points=[];autosize=1;strokeColor=none;fillColor=none;rotation=-90;" parent="ufzjEFwgDuIGSn9WfB68-93" vertex="1">
          <mxGeometry y="37" width="90" height="40" as="geometry" />
        </mxCell>
        <mxCell id="ufzjEFwgDuIGSn9WfB68-96" value="" style="group;rotation=-45;" parent="ufzjEFwgDuIGSn9WfB68-93" vertex="1" connectable="0">
          <mxGeometry x="15" y="8" width="127" height="91.92388155425124" as="geometry" />
        </mxCell>
        <mxCell id="ufzjEFwgDuIGSn9WfB68-97" value="" style="endArrow=async;html=1;rounded=0;endFill=1;strokeWidth=2;" parent="ufzjEFwgDuIGSn9WfB68-96" edge="1">
          <mxGeometry width="50" height="50" relative="1" as="geometry">
            <mxPoint x="65" y="-4" as="sourcePoint" />
            <mxPoint x="65" y="95" as="targetPoint" />
          </mxGeometry>
        </mxCell>
        <mxCell id="ufzjEFwgDuIGSn9WfB68-98" value="&lt;font style=&quot;font-size: 22px;&quot; face=&quot;Times New Roman&quot;&gt;O;Ï/O?Ï&lt;/font&gt;" style="text;html=1;align=center;verticalAlign=middle;resizable=0;points=[];autosize=1;strokeColor=none;fillColor=none;rotation=-90;" parent="ufzjEFwgDuIGSn9WfB68-96" vertex="1">
          <mxGeometry x="27" y="24" width="100" height="40" as="geometry" />
        </mxCell>
        <mxCell id="ufzjEFwgDuIGSn9WfB68-100" value="" style="group" parent="1" vertex="1" connectable="0">
          <mxGeometry x="-40" y="490" width="80" height="60" as="geometry" />
        </mxCell>
        <mxCell id="ufzjEFwgDuIGSn9WfB68-1" value="&lt;font style=&quot;font-size: 26px;&quot; face=&quot;Times New Roman&quot;&gt;S&lt;sub&gt;0&lt;/sub&gt;&lt;/font&gt;" style="ellipse;whiteSpace=wrap;html=1;aspect=fixed;strokeWidth=2;" parent="ufzjEFwgDuIGSn9WfB68-100" vertex="1">
          <mxGeometry x="20" width="60" height="60" as="geometry" />
        </mxCell>
        <mxCell id="ufzjEFwgDuIGSn9WfB68-99" value="" style="triangle;whiteSpace=wrap;html=1;strokeWidth=2;" parent="ufzjEFwgDuIGSn9WfB68-100" vertex="1">
          <mxGeometry y="15" width="20" height="30" as="geometry" />
        </mxCell>
        <mxCell id="ufzjEFwgDuIGSn9WfB68-102" value="" style="group;rotation=90;" parent="1" vertex="1" connectable="0">
          <mxGeometry x="469.9980592228744" y="289.9980592228744" width="142" height="105.92388155425127" as="geometry" />
        </mxCell>
        <mxCell id="ufzjEFwgDuIGSn9WfB68-103" value="" style="endArrow=async;html=1;rounded=0;endFill=1;strokeWidth=2;" parent="ufzjEFwgDuIGSn9WfB68-102" edge="1">
          <mxGeometry width="50" height="50" relative="1" as="geometry">
            <mxPoint x="42" y="13" as="sourcePoint" />
            <mxPoint x="113" y="83" as="targetPoint" />
          </mxGeometry>
        </mxCell>
        <mxCell id="ufzjEFwgDuIGSn9WfB68-105" value="" style="group;rotation=90;" parent="ufzjEFwgDuIGSn9WfB68-102" vertex="1" connectable="0">
          <mxGeometry x="1" y="12" width="127" height="91.92388155425124" as="geometry" />
        </mxCell>
        <mxCell id="ufzjEFwgDuIGSn9WfB68-106" value="" style="endArrow=async;html=1;rounded=0;endFill=1;strokeWidth=2;" parent="ufzjEFwgDuIGSn9WfB68-105" edge="1">
          <mxGeometry width="50" height="50" relative="1" as="geometry">
            <mxPoint x="98" y="82" as="sourcePoint" />
            <mxPoint x="28" y="12" as="targetPoint" />
          </mxGeometry>
        </mxCell>
        <mxCell id="ufzjEFwgDuIGSn9WfB68-107" value="&lt;font style=&quot;font-size: 22px;&quot; face=&quot;Times New Roman&quot;&gt;P;&lt;/font&gt;&lt;font style=&quot;font-size: 22px;&quot; face=&quot;Times New Roman&quot;&gt;&lt;/font&gt;&lt;font style=&quot;font-size: 25px;&quot; face=&quot;Times New Roman&quot;&gt;Îµ&lt;/font&gt;&lt;font style=&quot;font-size: 22px;&quot; face=&quot;Times New Roman&quot;&gt;&lt;/font&gt;&lt;font style=&quot;font-size: 22px;&quot; face=&quot;Times New Roman&quot;&gt;/&lt;/font&gt;&lt;font style=&quot;font-size: 25px;&quot; face=&quot;Times New Roman&quot;&gt;Îµ&lt;/font&gt;&lt;font style=&quot;font-size: 22px;&quot; face=&quot;Times New Roman&quot;&gt;I?&lt;/font&gt;" style="text;html=1;align=center;verticalAlign=middle;resizable=0;points=[];autosize=1;strokeColor=none;fillColor=none;rotation=45;" parent="ufzjEFwgDuIGSn9WfB68-105" vertex="1">
          <mxGeometry x="10" y="36" width="90" height="40" as="geometry" />
        </mxCell>
        <mxCell id="ufzjEFwgDuIGSn9WfB68-108" value="&lt;font style=&quot;font-size: 25px;&quot; face=&quot;Times New Roman&quot;&gt;Î»&lt;/font&gt;&lt;font style=&quot;font-size: 25px;&quot;&gt;;&lt;font style=&quot;font-size: 25px;&quot; face=&quot;Times New Roman&quot;&gt;Îµ&lt;/font&gt;&lt;font style=&quot;font-size: 25px;&quot; face=&quot;Times New Roman&quot;&gt;/&lt;/font&gt;&lt;font style=&quot;font-size: 25px;&quot; face=&quot;Times New Roman&quot;&gt;Îµ&lt;/font&gt;&lt;/font&gt;" style="text;html=1;align=center;verticalAlign=middle;resizable=0;points=[];autosize=1;strokeColor=none;fillColor=none;rotation=45;" parent="ufzjEFwgDuIGSn9WfB68-105" vertex="1">
          <mxGeometry x="54.00194077712558" y="-4.998059222874417" width="70" height="50" as="geometry" />
        </mxCell>
        <mxCell id="ufzjEFwgDuIGSn9WfB68-117" value="" style="group;rotation=75;" parent="1" vertex="1" connectable="0">
          <mxGeometry x="569.9980592228744" y="269.9980592228744" width="142" height="105.92388155425127" as="geometry" />
        </mxCell>
        <mxCell id="ufzjEFwgDuIGSn9WfB68-118" value="" style="endArrow=async;html=1;rounded=0;endFill=1;strokeWidth=2;" parent="ufzjEFwgDuIGSn9WfB68-117" edge="1">
          <mxGeometry width="50" height="50" relative="1" as="geometry">
            <mxPoint x="33" y="22" as="sourcePoint" />
            <mxPoint x="119" y="71" as="targetPoint" />
          </mxGeometry>
        </mxCell>
        <mxCell id="ufzjEFwgDuIGSn9WfB68-119" value="" style="group;rotation=75;" parent="ufzjEFwgDuIGSn9WfB68-117" vertex="1" connectable="0">
          <mxGeometry x="3" y="14" width="127" height="91.92388155425124" as="geometry" />
        </mxCell>
        <mxCell id="ufzjEFwgDuIGSn9WfB68-120" value="" style="endArrow=async;html=1;rounded=0;endFill=1;strokeWidth=2;" parent="ufzjEFwgDuIGSn9WfB68-119" edge="1">
          <mxGeometry width="50" height="50" relative="1" as="geometry">
            <mxPoint x="106" y="72" as="sourcePoint" />
            <mxPoint x="20" y="22" as="targetPoint" />
          </mxGeometry>
        </mxCell>
        <mxCell id="ufzjEFwgDuIGSn9WfB68-121" value="&lt;font style=&quot;font-size: 22px;&quot; face=&quot;Times New Roman&quot;&gt;P;&lt;/font&gt;&lt;font style=&quot;font-size: 25px;&quot;&gt;&lt;font style=&quot;font-size: 25px;&quot; face=&quot;Times New Roman&quot;&gt;&lt;/font&gt;&lt;/font&gt;&lt;font style=&quot;font-size: 25px;&quot; face=&quot;Times New Roman&quot;&gt;Î¾&lt;/font&gt;&lt;font style=&quot;font-size: 22px;&quot; face=&quot;Times New Roman&quot;&gt;/&lt;/font&gt;&lt;font style=&quot;font-size: 25px;&quot; face=&quot;Times New Roman&quot;&gt;Î¾&lt;/font&gt;&lt;font style=&quot;font-size: 22px;&quot; face=&quot;Times New Roman&quot;&gt;I?&lt;/font&gt;" style="text;html=1;align=center;verticalAlign=middle;resizable=0;points=[];autosize=1;strokeColor=none;fillColor=none;rotation=30;" parent="ufzjEFwgDuIGSn9WfB68-119" vertex="1">
          <mxGeometry x="11" y="34" width="90" height="50" as="geometry" />
        </mxCell>
        <mxCell id="ufzjEFwgDuIGSn9WfB68-122" value="&lt;font style=&quot;font-size: 25px;&quot; face=&quot;Times New Roman&quot;&gt;Î»&lt;/font&gt;&lt;font style=&quot;font-size: 25px;&quot;&gt;;&lt;/font&gt;&lt;font style=&quot;font-size: 25px;&quot;&gt;&lt;font style=&quot;font-size: 25px;&quot; face=&quot;Times New Roman&quot;&gt;&lt;/font&gt;&lt;/font&gt;&lt;font style=&quot;font-size: 25px;&quot; face=&quot;Times New Roman&quot;&gt;Î¾&lt;/font&gt;&lt;font style=&quot;font-size: 25px;&quot;&gt;&lt;font style=&quot;font-size: 25px;&quot; face=&quot;Times New Roman&quot;&gt;/&lt;/font&gt;&lt;/font&gt;&lt;font style=&quot;font-size: 25px;&quot; face=&quot;Times New Roman&quot;&gt;Î¾&lt;/font&gt;" style="text;html=1;align=center;verticalAlign=middle;resizable=0;points=[];autosize=1;strokeColor=none;fillColor=none;rotation=30;" parent="ufzjEFwgDuIGSn9WfB68-119" vertex="1">
          <mxGeometry x="46" y="-11" width="70" height="50" as="geometry" />
        </mxCell>
        <mxCell id="ufzjEFwgDuIGSn9WfB68-129" value="&lt;font style=&quot;font-size: 25px;&quot; face=&quot;Times New Roman&quot;&gt;Î»&lt;/font&gt;&lt;font style=&quot;font-size: 22px;&quot; face=&quot;Times New Roman&quot;&gt;;^S/&lt;/font&gt;&lt;font style=&quot;font-size: 25px;&quot;&gt;&lt;font style=&quot;font-size: 25px;&quot; face=&quot;Times New Roman&quot;&gt;Îµ&lt;/font&gt;&lt;/font&gt;&lt;font style=&quot;font-size: 22px;&quot; face=&quot;Times New Roman&quot;&gt;^S&lt;/font&gt;" style="text;html=1;align=center;verticalAlign=middle;resizable=0;points=[];autosize=1;strokeColor=none;fillColor=none;rotation=24;" parent="1" vertex="1">
          <mxGeometry x="504.9980592228744" y="469.9980592228744" width="100" height="50" as="geometry" />
        </mxCell>
        <mxCell id="ufzjEFwgDuIGSn9WfB68-125" value="" style="endArrow=async;html=1;rounded=0;endFill=1;strokeWidth=2;" parent="1" edge="1">
          <mxGeometry width="50" height="50" relative="1" as="geometry">
            <mxPoint x="622" y="490" as="sourcePoint" />
            <mxPoint x="521.9980592228744" y="449.9980592228744" as="targetPoint" />
          </mxGeometry>
        </mxCell>
        <mxCell id="ufzjEFwgDuIGSn9WfB68-131" value="" style="endArrow=async;html=1;rounded=0;endFill=1;strokeWidth=2;" parent="1" edge="1">
          <mxGeometry width="50" height="50" relative="1" as="geometry">
            <mxPoint x="516.9980592228744" y="462.9980592228744" as="sourcePoint" />
            <mxPoint x="617" y="503" as="targetPoint" />
          </mxGeometry>
        </mxCell>
        <mxCell id="ufzjEFwgDuIGSn9WfB68-132" value="&lt;font style=&quot;font-size: 22px;&quot; face=&quot;Times New Roman&quot;&gt;H;&lt;/font&gt;&lt;font style=&quot;font-size: 25px;&quot;&gt;&lt;font style=&quot;font-size: 25px;&quot; face=&quot;Times New Roman&quot;&gt;Îµ&lt;/font&gt;&lt;/font&gt;&lt;font style=&quot;font-size: 22px;&quot; face=&quot;Times New Roman&quot;&gt;/(&lt;/font&gt;&lt;font style=&quot;font-size: 25px;&quot;&gt;&lt;font style=&quot;font-size: 25px;&quot; face=&quot;Times New Roman&quot;&gt;Îµ|S)?&lt;/font&gt;&lt;/font&gt;" style="text;html=1;align=center;verticalAlign=middle;resizable=0;points=[];autosize=1;strokeColor=none;fillColor=none;rotation=21;" parent="1" vertex="1">
          <mxGeometry x="526.9980592228744" y="436.9980592228744" width="120" height="50" as="geometry" />
        </mxCell>
        <mxCell id="ufzjEFwgDuIGSn9WfB68-133" value="&lt;font style=&quot;font-size: 22px;&quot; face=&quot;Times New Roman&quot;&gt;C;&lt;/font&gt;&lt;font style=&quot;font-size: 22px;&quot; face=&quot;Times New Roman&quot;&gt;Ï/&lt;/font&gt;&lt;font style=&quot;font-size: 22px;&quot; face=&quot;Times New Roman&quot;&gt;Ï&lt;/font&gt;" style="text;whiteSpace=wrap;html=1;rotation=23;" parent="1" vertex="1">
          <mxGeometry x="515" y="498" width="80" height="50" as="geometry" />
        </mxCell>
        <mxCell id="ufzjEFwgDuIGSn9WfB68-136" value="" style="group;rotation=75;" parent="1" vertex="1" connectable="0">
          <mxGeometry x="796.9980592228744" y="192.99805922287447" width="142" height="106.92388155425124" as="geometry" />
        </mxCell>
        <mxCell id="ufzjEFwgDuIGSn9WfB68-137" value="" style="endArrow=async;html=1;rounded=0;endFill=1;strokeWidth=2;" parent="ufzjEFwgDuIGSn9WfB68-136" edge="1">
          <mxGeometry width="50" height="50" relative="1" as="geometry">
            <mxPoint x="119" y="70" as="sourcePoint" />
            <mxPoint x="34" y="22" as="targetPoint" />
          </mxGeometry>
        </mxCell>
        <mxCell id="ufzjEFwgDuIGSn9WfB68-138" value="" style="group;rotation=75;" parent="ufzjEFwgDuIGSn9WfB68-136" vertex="1" connectable="0">
          <mxGeometry x="2" y="14" width="131" height="91.92388155425124" as="geometry" />
        </mxCell>
        <mxCell id="ufzjEFwgDuIGSn9WfB68-139" value="" style="endArrow=async;html=1;rounded=0;endFill=1;strokeWidth=2;" parent="ufzjEFwgDuIGSn9WfB68-138" edge="1">
          <mxGeometry width="50" height="50" relative="1" as="geometry">
            <mxPoint x="20" y="22" as="sourcePoint" />
            <mxPoint x="106" y="70" as="targetPoint" />
          </mxGeometry>
        </mxCell>
        <mxCell id="ufzjEFwgDuIGSn9WfB68-140" value="&lt;font style=&quot;font-size: 25px;&quot; face=&quot;Times New Roman&quot;&gt;Î»&lt;/font&gt;&lt;font style=&quot;font-size: 25px;&quot;&gt;;&lt;/font&gt;&lt;font style=&quot;font-size: 25px;&quot;&gt;&lt;font style=&quot;font-size: 25px;&quot; face=&quot;Times New Roman&quot;&gt;&lt;/font&gt;&lt;/font&gt;&lt;font style=&quot;font-size: 25px;&quot; face=&quot;Times New Roman&quot;&gt;Î¾&lt;/font&gt;&lt;font style=&quot;font-size: 25px;&quot;&gt;&lt;font style=&quot;font-size: 25px;&quot; face=&quot;Times New Roman&quot;&gt;/&lt;/font&gt;&lt;/font&gt;&lt;font style=&quot;font-size: 25px;&quot; face=&quot;Times New Roman&quot;&gt;Î¾&lt;/font&gt;" style="text;html=1;align=center;verticalAlign=middle;resizable=0;points=[];autosize=1;strokeColor=none;fillColor=none;rotation=30;" parent="ufzjEFwgDuIGSn9WfB68-138" vertex="1">
          <mxGeometry x="22" y="34" width="70" height="50" as="geometry" />
        </mxCell>
        <mxCell id="ufzjEFwgDuIGSn9WfB68-141" value="&lt;font style=&quot;font-size: 22px;&quot; face=&quot;Times New Roman&quot;&gt;H&lt;/font&gt;&lt;font style=&quot;font-size: 25px;&quot;&gt;;&lt;/font&gt;&lt;font style=&quot;font-size: 25px;&quot; face=&quot;Times New Roman&quot;&gt;Î¾/&lt;/font&gt;&lt;font style=&quot;font-size: 25px;&quot; face=&quot;Times New Roman&quot;&gt;(Î¾|S)?&lt;/font&gt;" style="text;html=1;align=center;verticalAlign=middle;resizable=0;points=[];autosize=1;strokeColor=none;fillColor=none;rotation=30;" parent="ufzjEFwgDuIGSn9WfB68-138" vertex="1">
          <mxGeometry x="22" y="-7" width="120" height="50" as="geometry" />
        </mxCell>
        <mxCell id="ufzjEFwgDuIGSn9WfB68-145" value="&lt;font style=&quot;font-size: 22px;&quot; face=&quot;Times New Roman&quot;&gt;H;Ï/S?Ï&lt;/font&gt;" style="text;html=1;align=center;verticalAlign=middle;resizable=0;points=[];autosize=1;strokeColor=none;fillColor=none;rotation=0;" parent="1" vertex="1">
          <mxGeometry x="264.9980592228744" y="327.9980592228744" width="100" height="40" as="geometry" />
        </mxCell>
        <mxCell id="ufzjEFwgDuIGSn9WfB68-147" value="" style="group;rotation=-45;" parent="1" vertex="1" connectable="0">
          <mxGeometry x="386.9980592228744" y="679.9980592228745" width="142" height="105.92388155425127" as="geometry" />
        </mxCell>
        <mxCell id="ufzjEFwgDuIGSn9WfB68-148" value="" style="endArrow=async;html=1;rounded=0;endFill=1;strokeWidth=2;" parent="ufzjEFwgDuIGSn9WfB68-147" edge="1">
          <mxGeometry width="50" height="50" relative="1" as="geometry">
            <mxPoint x="63" y="102" as="sourcePoint" />
            <mxPoint x="62" y="2" as="targetPoint" />
          </mxGeometry>
        </mxCell>
        <mxCell id="ufzjEFwgDuIGSn9WfB68-149" value="&lt;font style=&quot;font-size: 22px;&quot; face=&quot;Times New Roman&quot;&gt;H;Ï/S?Ï&lt;/font&gt;" style="text;html=1;align=center;verticalAlign=middle;resizable=0;points=[];autosize=1;strokeColor=none;fillColor=none;rotation=-90;" parent="ufzjEFwgDuIGSn9WfB68-147" vertex="1">
          <mxGeometry x="-5" y="37" width="100" height="40" as="geometry" />
        </mxCell>
        <mxCell id="ufzjEFwgDuIGSn9WfB68-150" value="" style="group;rotation=-45;" parent="ufzjEFwgDuIGSn9WfB68-147" vertex="1" connectable="0">
          <mxGeometry x="15" y="8" width="127" height="91.92388155425124" as="geometry" />
        </mxCell>
        <mxCell id="ufzjEFwgDuIGSn9WfB68-151" value="" style="endArrow=async;html=1;rounded=0;endFill=1;strokeWidth=2;" parent="ufzjEFwgDuIGSn9WfB68-150" edge="1">
          <mxGeometry width="50" height="50" relative="1" as="geometry">
            <mxPoint x="65" y="-4" as="sourcePoint" />
            <mxPoint x="65" y="95" as="targetPoint" />
          </mxGeometry>
        </mxCell>
        <mxCell id="ufzjEFwgDuIGSn9WfB68-152" value="&lt;font style=&quot;font-size: 22px;&quot; face=&quot;Times New Roman&quot;&gt;R;Ï/Ï&lt;/font&gt;" style="text;html=1;align=center;verticalAlign=middle;resizable=0;points=[];autosize=1;strokeColor=none;fillColor=none;rotation=-90;" parent="ufzjEFwgDuIGSn9WfB68-150" vertex="1">
          <mxGeometry x="37" y="24" width="80" height="40" as="geometry" />
        </mxCell>
        <mxCell id="ufzjEFwgDuIGSn9WfB68-157" value="&lt;font style=&quot;font-size: 22px;&quot; face=&quot;Times New Roman&quot;&gt;C,T,&lt;/font&gt;&lt;font style=&quot;font-size: 22px;&quot; face=&quot;Times New Roman&quot;&gt;R;Ï/Ï&lt;/font&gt;" style="text;html=1;align=center;verticalAlign=middle;resizable=0;points=[];autosize=1;strokeColor=none;fillColor=none;rotation=0;" parent="1" vertex="1">
          <mxGeometry x="264.9980592228744" y="959.9980592228744" width="110" height="40" as="geometry" />
        </mxCell>
        <mxCell id="ufzjEFwgDuIGSn9WfB68-159" value="&lt;font style=&quot;font-size: 22px;&quot; face=&quot;Times New Roman&quot;&gt;&lt;b&gt;#&lt;/b&gt;;^&lt;/font&gt;&lt;font style=&quot;font-size: 25px;&quot;&gt;&lt;font style=&quot;font-size: 25px;&quot; face=&quot;Times New Roman&quot;&gt;Îµ/&lt;/font&gt;&lt;/font&gt;&lt;font size=&quot;1&quot;&gt;&lt;font style=&quot;font-size: 22px;&quot; face=&quot;Times New Roman&quot;&gt;^&lt;/font&gt;&lt;/font&gt;&lt;font style=&quot;font-size: 25px;&quot;&gt;&lt;font style=&quot;font-size: 25px;&quot; face=&quot;Times New Roman&quot;&gt;Îµ&lt;/font&gt;&lt;/font&gt;" style="text;html=1;align=center;verticalAlign=middle;resizable=0;points=[];autosize=1;strokeColor=none;fillColor=none;rotation=0;" parent="1" vertex="1">
          <mxGeometry x="299.9980592228744" y="-0.0019407771255828266" width="90" height="50" as="geometry" />
        </mxCell>
        <mxCell id="ufzjEFwgDuIGSn9WfB68-161" value="&lt;font style=&quot;font-size: 22px;&quot; face=&quot;Times New Roman&quot;&gt;R;&lt;/font&gt;&lt;font style=&quot;font-size: 25px;&quot; face=&quot;Times New Roman&quot;&gt;&lt;font style=&quot;font-size: 25px;&quot;&gt;Îµ&lt;/font&gt;&lt;/font&gt;&lt;font style=&quot;font-size: 22px;&quot; face=&quot;Times New Roman&quot;&gt;/&lt;/font&gt;&lt;font style=&quot;font-size: 25px;&quot; face=&quot;Times New Roman&quot;&gt;&lt;font style=&quot;font-size: 25px;&quot;&gt;Îµ&lt;/font&gt;&lt;/font&gt;" style="text;whiteSpace=wrap;html=1;" parent="1" vertex="1">
          <mxGeometry x="720" y="562" width="50" height="40" as="geometry" />
        </mxCell>
        <mxCell id="ufzjEFwgDuIGSn9WfB68-166" value="" style="group;rotation=20;" parent="1" vertex="1" connectable="0">
          <mxGeometry x="489.9980592228744" y="530.0780592228745" width="142" height="129.92194077712554" as="geometry" />
        </mxCell>
        <mxCell id="ufzjEFwgDuIGSn9WfB68-167" value="" style="endArrow=async;html=1;rounded=0;endFill=1;strokeWidth=2;" parent="ufzjEFwgDuIGSn9WfB68-166" edge="1">
          <mxGeometry width="50" height="50" relative="1" as="geometry">
            <mxPoint x="24" y="67" as="sourcePoint" />
            <mxPoint x="114" y="23" as="targetPoint" />
          </mxGeometry>
        </mxCell>
        <mxCell id="ufzjEFwgDuIGSn9WfB68-168" value="&lt;font style=&quot;font-size: 25px;&quot; face=&quot;Times New Roman&quot;&gt;Î»&lt;/font&gt;&lt;font style=&quot;font-size: 25px;&quot;&gt;;&lt;font style=&quot;font-size: 25px;&quot; face=&quot;Times New Roman&quot;&gt;Îµ&lt;/font&gt;&lt;font style=&quot;font-size: 25px;&quot; face=&quot;Times New Roman&quot;&gt;/&lt;/font&gt;&lt;font style=&quot;font-size: 25px;&quot; face=&quot;Times New Roman&quot;&gt;Îµ&lt;/font&gt;&lt;/font&gt;" style="text;html=1;align=center;verticalAlign=middle;resizable=0;points=[];autosize=1;strokeColor=none;fillColor=none;rotation=-25;" parent="ufzjEFwgDuIGSn9WfB68-166" vertex="1">
          <mxGeometry x="21" y="6" width="70" height="50" as="geometry" />
        </mxCell>
        <mxCell id="ufzjEFwgDuIGSn9WfB68-169" value="" style="group;rotation=20;" parent="ufzjEFwgDuIGSn9WfB68-166" vertex="1" connectable="0">
          <mxGeometry x="9" y="13" width="127" height="116.92194077712554" as="geometry" />
        </mxCell>
        <mxCell id="ufzjEFwgDuIGSn9WfB68-170" value="" style="endArrow=async;html=1;rounded=0;endFill=1;strokeWidth=2;" parent="ufzjEFwgDuIGSn9WfB68-169" edge="1">
          <mxGeometry width="50" height="50" relative="1" as="geometry">
            <mxPoint x="110" y="25" as="sourcePoint" />
            <mxPoint x="20" y="65" as="targetPoint" />
          </mxGeometry>
        </mxCell>
        <mxCell id="ufzjEFwgDuIGSn9WfB68-171" value="&lt;font style=&quot;font-size: 22px;&quot; face=&quot;Times New Roman&quot;&gt;O;&lt;/font&gt;&lt;font style=&quot;font-size: 25px;&quot; face=&quot;Times New Roman&quot;&gt;Îµ&lt;/font&gt;&lt;font style=&quot;font-size: 22px;&quot; face=&quot;Times New Roman&quot;&gt;/&lt;/font&gt;&lt;font style=&quot;font-size: 25px;&quot; face=&quot;Times New Roman&quot;&gt;Îµ&lt;/font&gt;&lt;font style=&quot;font-size: 22px;&quot; face=&quot;Times New Roman&quot;&gt;O?&lt;/font&gt;" style="text;html=1;align=center;verticalAlign=middle;resizable=0;points=[];autosize=1;strokeColor=none;fillColor=none;rotation=-25;" parent="ufzjEFwgDuIGSn9WfB68-169" vertex="1">
          <mxGeometry x="21" y="38" width="100" height="40" as="geometry" />
        </mxCell>
        <mxCell id="ufzjEFwgDuIGSn9WfB68-173" value="&lt;font style=&quot;font-size: 22px;&quot; face=&quot;Times New Roman&quot;&gt;R;^&lt;/font&gt;&lt;font style=&quot;font-size: 25px;&quot; face=&quot;Times New Roman&quot;&gt;&lt;font style=&quot;font-size: 25px;&quot;&gt;Îµ&lt;/font&gt;&lt;/font&gt;&lt;font style=&quot;font-size: 22px;&quot; face=&quot;Times New Roman&quot;&gt;/^&lt;/font&gt;&lt;font style=&quot;font-size: 25px;&quot; face=&quot;Times New Roman&quot;&gt;&lt;font style=&quot;font-size: 25px;&quot;&gt;Îµ&lt;/font&gt;&lt;/font&gt;" style="text;whiteSpace=wrap;html=1;rotation=-50;" parent="ufzjEFwgDuIGSn9WfB68-169" vertex="1">
          <mxGeometry x="53.00194077712558" y="66.92194077712554" width="68" height="50" as="geometry" />
        </mxCell>
        <mxCell id="ufzjEFwgDuIGSn9WfB68-176" value="" style="group;rotation=40;" parent="1" vertex="1" connectable="0">
          <mxGeometry x="671.9980592228744" y="781.9980592228744" width="142" height="106.92388155425124" as="geometry" />
        </mxCell>
        <mxCell id="ufzjEFwgDuIGSn9WfB68-177" value="" style="endArrow=async;html=1;rounded=0;endFill=1;strokeWidth=2;" parent="ufzjEFwgDuIGSn9WfB68-176" edge="1">
          <mxGeometry width="50" height="50" relative="1" as="geometry">
            <mxPoint x="120" y="40" as="sourcePoint" />
            <mxPoint x="21" y="49" as="targetPoint" />
          </mxGeometry>
        </mxCell>
        <mxCell id="ufzjEFwgDuIGSn9WfB68-178" value="" style="group;rotation=40;" parent="ufzjEFwgDuIGSn9WfB68-176" vertex="1" connectable="0">
          <mxGeometry x="8" y="15" width="131" height="91.92388155425124" as="geometry" />
        </mxCell>
        <mxCell id="ufzjEFwgDuIGSn9WfB68-179" value="" style="endArrow=async;html=1;rounded=0;endFill=1;strokeWidth=2;" parent="ufzjEFwgDuIGSn9WfB68-178" edge="1">
          <mxGeometry width="50" height="50" relative="1" as="geometry">
            <mxPoint x="14" y="51" as="sourcePoint" />
            <mxPoint x="112" y="43" as="targetPoint" />
          </mxGeometry>
        </mxCell>
        <mxCell id="ufzjEFwgDuIGSn9WfB68-180" value="&lt;font style=&quot;font-size: 25px;&quot; face=&quot;Times New Roman&quot;&gt;Î»&lt;/font&gt;&lt;font style=&quot;font-size: 25px;&quot;&gt;;&lt;/font&gt;&lt;font style=&quot;font-size: 25px;&quot;&gt;&lt;font style=&quot;font-size: 25px;&quot; face=&quot;Times New Roman&quot;&gt;&lt;/font&gt;&lt;/font&gt;&lt;font style=&quot;font-size: 25px;&quot; face=&quot;Times New Roman&quot;&gt;Î¾&lt;/font&gt;&lt;font style=&quot;font-size: 25px;&quot;&gt;&lt;font style=&quot;font-size: 25px;&quot; face=&quot;Times New Roman&quot;&gt;/&lt;/font&gt;&lt;/font&gt;&lt;font style=&quot;font-size: 25px;&quot; face=&quot;Times New Roman&quot;&gt;Î¾&lt;/font&gt;" style="text;html=1;align=center;verticalAlign=middle;resizable=0;points=[];autosize=1;strokeColor=none;fillColor=none;rotation=-5;" parent="ufzjEFwgDuIGSn9WfB68-178" vertex="1">
          <mxGeometry x="30" y="36" width="70" height="50" as="geometry" />
        </mxCell>
        <mxCell id="ufzjEFwgDuIGSn9WfB68-181" value="&lt;font style=&quot;font-size: 22px;&quot; face=&quot;Times New Roman&quot;&gt;O;&lt;/font&gt;&lt;font style=&quot;font-size: 25px;&quot; face=&quot;Times New Roman&quot;&gt;Î¾&lt;/font&gt;&lt;font style=&quot;font-size: 22px;&quot; face=&quot;Times New Roman&quot;&gt;/&lt;/font&gt;&lt;font style=&quot;font-size: 25px;&quot; face=&quot;Times New Roman&quot;&gt;Î¾&lt;/font&gt;&lt;font style=&quot;font-size: 22px;&quot; face=&quot;Times New Roman&quot;&gt;O?&lt;/font&gt;" style="text;html=1;align=center;verticalAlign=middle;resizable=0;points=[];autosize=1;strokeColor=none;fillColor=none;rotation=-5;" parent="ufzjEFwgDuIGSn9WfB68-178" vertex="1">
          <mxGeometry x="13" y="-6" width="100" height="40" as="geometry" />
        </mxCell>
        <mxCell id="ufzjEFwgDuIGSn9WfB68-183" value="" style="group;rotation=29;" parent="1" vertex="1" connectable="0">
          <mxGeometry x="529.9980592228744" y="718.9980592228744" width="142" height="106.92388155425124" as="geometry" />
        </mxCell>
        <mxCell id="ufzjEFwgDuIGSn9WfB68-185" value="" style="group;rotation=10;" parent="ufzjEFwgDuIGSn9WfB68-183" vertex="1" connectable="0">
          <mxGeometry x="11" y="14" width="131" height="91.92388155425124" as="geometry" />
        </mxCell>
        <mxCell id="ufzjEFwgDuIGSn9WfB68-187" value="&lt;font style=&quot;font-size: 25px;&quot; face=&quot;Times New Roman&quot;&gt;Î»&lt;/font&gt;&lt;font style=&quot;font-size: 25px;&quot;&gt;;&lt;/font&gt;&lt;font style=&quot;font-size: 25px;&quot;&gt;&lt;font style=&quot;font-size: 25px;&quot; face=&quot;Times New Roman&quot;&gt;&lt;/font&gt;&lt;/font&gt;&lt;font style=&quot;font-size: 25px;&quot; face=&quot;Times New Roman&quot;&gt;&amp;gt;Î¾&lt;/font&gt;&lt;font style=&quot;font-size: 25px;&quot;&gt;&lt;font style=&quot;font-size: 25px;&quot; face=&quot;Times New Roman&quot;&gt;/&amp;gt;&lt;/font&gt;&lt;/font&gt;&lt;font style=&quot;font-size: 25px;&quot; face=&quot;Times New Roman&quot;&gt;Î¾&lt;/font&gt;" style="text;html=1;align=center;verticalAlign=middle;resizable=0;points=[];autosize=1;strokeColor=none;fillColor=none;rotation=328;" parent="ufzjEFwgDuIGSn9WfB68-185" vertex="1">
          <mxGeometry width="100" height="50" as="geometry" />
        </mxCell>
        <mxCell id="ufzjEFwgDuIGSn9WfB68-190" style="edgeStyle=orthogonalEdgeStyle;rounded=0;orthogonalLoop=1;jettySize=auto;html=1;strokeWidth=2;entryX=0.833;entryY=0;entryDx=0;entryDy=0;curved=1;entryPerimeter=0;" parent="1" edge="1">
          <mxGeometry relative="1" as="geometry">
            <mxPoint x="331.0199999999995" y="398.92" as="sourcePoint" />
            <mxPoint x="341" y="388.92" as="targetPoint" />
            <Array as="points">
              <mxPoint x="301" y="398.92" />
              <mxPoint x="301" y="358.92" />
              <mxPoint x="341" y="358.92" />
            </Array>
          </mxGeometry>
        </mxCell>
        <mxCell id="ufzjEFwgDuIGSn9WfB68-192" style="edgeStyle=orthogonalEdgeStyle;rounded=0;orthogonalLoop=1;jettySize=auto;html=1;strokeWidth=2;entryX=0.833;entryY=0;entryDx=0;entryDy=0;curved=1;entryPerimeter=0;" parent="1" edge="1">
          <mxGeometry relative="1" as="geometry">
            <mxPoint x="331.0199999999995" y="648" as="sourcePoint" />
            <mxPoint x="341" y="638" as="targetPoint" />
            <Array as="points">
              <mxPoint x="301" y="648" />
              <mxPoint x="301" y="608" />
              <mxPoint x="341" y="608" />
            </Array>
          </mxGeometry>
        </mxCell>
        <mxCell id="ufzjEFwgDuIGSn9WfB68-193" style="edgeStyle=orthogonalEdgeStyle;rounded=0;orthogonalLoop=1;jettySize=auto;html=1;strokeWidth=2;entryX=0.833;entryY=0;entryDx=0;entryDy=0;curved=1;entryPerimeter=0;" parent="1" edge="1">
          <mxGeometry relative="1" as="geometry">
            <mxPoint x="335.00999999999954" y="927" as="sourcePoint" />
            <mxPoint x="344.99" y="937" as="targetPoint" />
            <Array as="points">
              <mxPoint x="334.99" y="925" />
              <mxPoint x="304.99" y="925" />
              <mxPoint x="304.99" y="967" />
              <mxPoint x="344.99" y="967" />
            </Array>
          </mxGeometry>
        </mxCell>
        <mxCell id="ufzjEFwgDuIGSn9WfB68-194" style="edgeStyle=orthogonalEdgeStyle;rounded=0;orthogonalLoop=1;jettySize=auto;html=1;strokeWidth=2;entryX=0.833;entryY=0;entryDx=0;entryDy=0;curved=1;entryPerimeter=0;" parent="1" edge="1">
          <mxGeometry relative="1" as="geometry">
            <mxPoint x="722" y="548" as="sourcePoint" />
            <mxPoint x="731.9800000000005" y="538" as="targetPoint" />
            <Array as="points">
              <mxPoint x="722" y="578" />
              <mxPoint x="762" y="578" />
              <mxPoint x="762" y="538" />
            </Array>
          </mxGeometry>
        </mxCell>
        <mxCell id="ufzjEFwgDuIGSn9WfB68-195" value="&lt;font style=&quot;font-size: 22px;&quot; face=&quot;Times New Roman&quot;&gt;&lt;b&gt;#&lt;/b&gt;;&lt;/font&gt;&lt;font style=&quot;font-size: 25px;&quot;&gt;&lt;font face=&quot;Times New Roman&quot;&gt;&lt;/font&gt;&lt;font style=&quot;font-size: 25px;&quot; face=&quot;Times New Roman&quot;&gt;Îµ&lt;/font&gt;&lt;/font&gt;&lt;font style=&quot;font-size: 22px;&quot; face=&quot;Times New Roman&quot;&gt;/&lt;/font&gt;&lt;font style=&quot;font-size: 25px;&quot;&gt;&lt;font style=&quot;font-size: 25px;&quot; face=&quot;Times New Roman&quot;&gt;Îµ&lt;/font&gt;&lt;/font&gt;" style="text;html=1;align=center;verticalAlign=middle;resizable=0;points=[];autosize=1;strokeColor=none;fillColor=none;rotation=0;" parent="1" vertex="1">
          <mxGeometry x="790" y="479.00000000000006" width="70" height="50" as="geometry" />
        </mxCell>
        <mxCell id="ufzjEFwgDuIGSn9WfB68-196" style="edgeStyle=orthogonalEdgeStyle;rounded=0;orthogonalLoop=1;jettySize=auto;html=1;strokeWidth=2;entryX=0.833;entryY=0;entryDx=0;entryDy=0;curved=1;entryPerimeter=0;" parent="1" edge="1">
          <mxGeometry relative="1" as="geometry">
            <mxPoint x="990" y="490" as="sourcePoint" />
            <mxPoint x="999.9800000000005" y="500" as="targetPoint" />
            <Array as="points">
              <mxPoint x="990" y="460" />
              <mxPoint x="1030" y="460" />
              <mxPoint x="1030" y="500" />
            </Array>
          </mxGeometry>
        </mxCell>
        <mxCell id="ufzjEFwgDuIGSn9WfB68-197" value="&lt;font style=&quot;font-size: 22px;&quot; face=&quot;Times New Roman&quot;&gt;&lt;b&gt;#&lt;/b&gt;,R&lt;/font&gt;&lt;font style=&quot;font-size: 25px;&quot;&gt;;&lt;/font&gt;&lt;font style=&quot;font-size: 25px;&quot; face=&quot;Times New Roman&quot;&gt;Î¾&lt;/font&gt;&lt;font style=&quot;font-size: 25px;&quot;&gt;&lt;font style=&quot;font-size: 25px;&quot; face=&quot;Times New Roman&quot;&gt;/&lt;/font&gt;&lt;/font&gt;&lt;font style=&quot;font-size: 25px;&quot; face=&quot;Times New Roman&quot;&gt;Î¾&lt;/font&gt;" style="text;html=1;align=center;verticalAlign=middle;resizable=0;points=[];autosize=1;strokeColor=none;fillColor=none;rotation=0;" parent="1" vertex="1">
          <mxGeometry x="982.9980592228744" y="424.9980592228744" width="90" height="50" as="geometry" />
        </mxCell>
        <mxCell id="ufzjEFwgDuIGSn9WfB68-200" value="&lt;font style=&quot;font-size: 22px;&quot; face=&quot;Times New Roman&quot;&gt;T;&lt;/font&gt;&lt;font style=&quot;font-size: 25px;&quot; face=&quot;Times New Roman&quot;&gt;Î¾/(&lt;/font&gt;&lt;font style=&quot;font-size: 25px;&quot; face=&quot;Times New Roman&quot;&gt;Î¾|E)?&lt;/font&gt;" style="text;html=1;align=center;verticalAlign=middle;resizable=0;points=[];autosize=1;strokeColor=none;fillColor=none;rotation=0;" parent="1" vertex="1">
          <mxGeometry x="1064.9980592228744" y="483.0780592228744" width="120" height="40" as="geometry" />
        </mxCell>
        <mxCell id="ufzjEFwgDuIGSn9WfB68-201" value="&lt;font style=&quot;font-size: 22px;&quot; face=&quot;Times New Roman&quot;&gt;C;&lt;/font&gt;&lt;font style=&quot;font-size: 22px;&quot; face=&quot;Times New Roman&quot;&gt;Ï&lt;/font&gt;&lt;font style=&quot;font-size: 25px;&quot; face=&quot;Times New Roman&quot;&gt;/&lt;/font&gt;&lt;font style=&quot;font-size: 25px;&quot; face=&quot;Times New Roman&quot;&gt;E?&lt;/font&gt;&lt;font style=&quot;font-size: 25px;&quot;&gt;&lt;font style=&quot;font-size: 25px;&quot; face=&quot;Times New Roman&quot;&gt;&lt;/font&gt;&lt;/font&gt;&lt;font style=&quot;font-size: 22px;&quot; face=&quot;Times New Roman&quot;&gt;Ï&lt;/font&gt;" style="text;html=1;align=center;verticalAlign=middle;resizable=0;points=[];autosize=1;strokeColor=none;fillColor=none;rotation=0;" parent="1" vertex="1">
          <mxGeometry x="1070.9980592228744" y="451.0780592228744" width="100" height="50" as="geometry" />
        </mxCell>
        <mxCell id="ufzjEFwgDuIGSn9WfB68-202" style="rounded=0;orthogonalLoop=1;jettySize=auto;html=1;exitX=1;exitY=0.333;exitDx=0;exitDy=0;entryX=0;entryY=0;entryDx=0;entryDy=0;startArrow=classic;startFill=1;strokeWidth=2;edgeStyle=orthogonalEdgeStyle;exitPerimeter=0;curved=1;endArrow=none;endFill=0;" parent="1" source="ufzjEFwgDuIGSn9WfB68-2" target="ufzjEFwgDuIGSn9WfB68-70" edge="1">
          <mxGeometry relative="1" as="geometry">
            <mxPoint x="390" y="397" as="sourcePoint" />
            <mxPoint x="990" y="500" as="targetPoint" />
            <Array as="points">
              <mxPoint x="1229" y="150" />
            </Array>
          </mxGeometry>
        </mxCell>
        <mxCell id="ufzjEFwgDuIGSn9WfB68-212" value="" style="group" parent="1" vertex="1" connectable="0">
          <mxGeometry x="978.7618435714112" y="162.85408170380995" width="108.47243130292645" height="95.28795503812896" as="geometry" />
        </mxCell>
        <mxCell id="ufzjEFwgDuIGSn9WfB68-209" value="&lt;font style=&quot;font-size: 22px;&quot; face=&quot;Times New Roman&quot;&gt;P;E/I?E&lt;/font&gt;" style="text;html=1;align=center;verticalAlign=middle;resizable=0;points=[];autosize=1;strokeColor=none;fillColor=none;rotation=25;" parent="ufzjEFwgDuIGSn9WfB68-212" vertex="1">
          <mxGeometry x="4.236215651463226" y="38.143977519064464" width="90" height="40" as="geometry" />
        </mxCell>
        <mxCell id="ufzjEFwgDuIGSn9WfB68-210" value="&lt;font style=&quot;font-size: 22px;&quot; face=&quot;Times New Roman&quot;&gt;P;&lt;/font&gt;&lt;font style=&quot;font-size: 22px;&quot; face=&quot;Times New Roman&quot;&gt;&lt;/font&gt;&lt;font style=&quot;font-size: 25px;&quot; face=&quot;Times New Roman&quot;&gt;Î¾&lt;/font&gt;&lt;font style=&quot;font-size: 22px;&quot; face=&quot;Times New Roman&quot;&gt;/&lt;/font&gt;&lt;font style=&quot;font-size: 25px;&quot; face=&quot;Times New Roman&quot;&gt;Î¾&lt;/font&gt;&lt;font style=&quot;font-size: 22px;&quot; face=&quot;Times New Roman&quot;&gt;I?&lt;/font&gt;" style="text;html=1;align=center;verticalAlign=middle;resizable=0;points=[];autosize=1;strokeColor=none;fillColor=none;rotation=25;" parent="ufzjEFwgDuIGSn9WfB68-212" vertex="1">
          <mxGeometry x="14.236215651463226" y="17.143977519064464" width="90" height="40" as="geometry" />
        </mxCell>
        <mxCell id="ufzjEFwgDuIGSn9WfB68-213" value="" style="group;rotation=-15;" parent="1" vertex="1" connectable="0">
          <mxGeometry x="1044.0018435714112" y="360.00408170380996" width="116" height="95.28795503812896" as="geometry" />
        </mxCell>
        <mxCell id="ufzjEFwgDuIGSn9WfB68-214" value="&lt;font style=&quot;font-size: 22px;&quot; face=&quot;Times New Roman&quot;&gt;H;E/S?E&lt;/font&gt;" style="text;html=1;align=center;verticalAlign=middle;resizable=0;points=[];autosize=1;strokeColor=none;fillColor=none;rotation=10;" parent="ufzjEFwgDuIGSn9WfB68-213" vertex="1">
          <mxGeometry x="2" y="39" width="100" height="40" as="geometry" />
        </mxCell>
        <mxCell id="ufzjEFwgDuIGSn9WfB68-215" value="&lt;font style=&quot;font-size: 22px;&quot; face=&quot;Times New Roman&quot;&gt;H;&lt;/font&gt;&lt;font style=&quot;font-size: 25px;&quot; face=&quot;Times New Roman&quot;&gt;Î¾&lt;/font&gt;&lt;font style=&quot;font-size: 22px;&quot; face=&quot;Times New Roman&quot;&gt;/&lt;/font&gt;&lt;font style=&quot;font-size: 25px;&quot; face=&quot;Times New Roman&quot;&gt;(Î¾&lt;/font&gt;&lt;font style=&quot;font-size: 22px;&quot; face=&quot;Times New Roman&quot;&gt;|S)?&lt;/font&gt;" style="text;html=1;align=center;verticalAlign=middle;resizable=0;points=[];autosize=1;strokeColor=none;fillColor=none;rotation=10;" parent="ufzjEFwgDuIGSn9WfB68-213" vertex="1">
          <mxGeometry x="-4" y="16" width="120" height="40" as="geometry" />
        </mxCell>
        <mxCell id="ufzjEFwgDuIGSn9WfB68-220" value="" style="group;rotation=-40;" parent="1" vertex="1" connectable="0">
          <mxGeometry x="1040.0018435714112" y="550.0040817038099" width="108.47243130292645" height="95.28795503812896" as="geometry" />
        </mxCell>
        <mxCell id="ufzjEFwgDuIGSn9WfB68-221" value="&lt;font style=&quot;font-size: 22px;&quot; face=&quot;Times New Roman&quot;&gt;O;E/O?E&lt;/font&gt;" style="text;html=1;align=center;verticalAlign=middle;resizable=0;points=[];autosize=1;strokeColor=none;fillColor=none;rotation=-15;" parent="ufzjEFwgDuIGSn9WfB68-220" vertex="1">
          <mxGeometry x="7" y="39" width="100" height="40" as="geometry" />
        </mxCell>
        <mxCell id="ufzjEFwgDuIGSn9WfB68-222" value="&lt;font style=&quot;font-size: 22px;&quot; face=&quot;Times New Roman&quot;&gt;O;&lt;/font&gt;&lt;font style=&quot;font-size: 25px;&quot; face=&quot;Times New Roman&quot;&gt;Î¾&lt;/font&gt;&lt;font style=&quot;font-size: 22px;&quot; face=&quot;Times New Roman&quot;&gt;/&lt;/font&gt;&lt;font style=&quot;font-size: 25px;&quot; face=&quot;Times New Roman&quot;&gt;Î¾&lt;/font&gt;&lt;font style=&quot;font-size: 22px;&quot; face=&quot;Times New Roman&quot;&gt;O?&lt;/font&gt;" style="text;html=1;align=center;verticalAlign=middle;resizable=0;points=[];autosize=1;strokeColor=none;fillColor=none;rotation=-15;" parent="ufzjEFwgDuIGSn9WfB68-220" vertex="1">
          <mxGeometry x="1" y="17" width="100" height="40" as="geometry" />
        </mxCell>
        <mxCell id="ufzjEFwgDuIGSn9WfB68-223" style="rounded=0;orthogonalLoop=1;jettySize=auto;html=1;exitX=1;exitY=0.333;exitDx=0;exitDy=0;entryX=0;entryY=0;entryDx=0;entryDy=0;startArrow=classic;startFill=1;strokeWidth=2;edgeStyle=orthogonalEdgeStyle;exitPerimeter=0;curved=1;endArrow=none;endFill=0;" parent="1" edge="1">
          <mxGeometry relative="1" as="geometry">
            <mxPoint x="389.9988235294126" y="898" as="sourcePoint" />
            <mxPoint x="1228.9988235294127" y="549" as="targetPoint" />
            <Array as="points">
              <mxPoint x="1228.9988235294127" y="898" />
            </Array>
          </mxGeometry>
        </mxCell>
        <mxCell id="ufzjEFwgDuIGSn9WfB68-224" value="&lt;font style=&quot;font-size: 22px;&quot; face=&quot;Times New Roman&quot;&gt;R,C,T;E/E&lt;/font&gt;" style="text;html=1;align=center;verticalAlign=middle;resizable=0;points=[];autosize=1;strokeColor=none;fillColor=none;rotation=-20;" parent="1" vertex="1">
          <mxGeometry x="959.9980592228744" y="767.9580592228745" width="120" height="40" as="geometry" />
        </mxCell>
        <mxCell id="ufzjEFwgDuIGSn9WfB68-225" style="edgeStyle=orthogonalEdgeStyle;rounded=0;orthogonalLoop=1;jettySize=auto;html=1;strokeWidth=2;entryX=0.833;entryY=0;entryDx=0;entryDy=0;curved=1;entryPerimeter=0;" parent="1" edge="1">
          <mxGeometry relative="1" as="geometry">
            <mxPoint x="1266" y="495" as="sourcePoint" />
            <mxPoint x="1275.9800000000005" y="505" as="targetPoint" />
            <Array as="points">
              <mxPoint x="1266" y="465" />
              <mxPoint x="1306" y="465" />
              <mxPoint x="1306" y="505" />
            </Array>
          </mxGeometry>
        </mxCell>
        <mxCell id="ufzjEFwgDuIGSn9WfB68-226" value="" style="group;rotation=-25;" parent="1" vertex="1" connectable="0">
          <mxGeometry x="1304.0018435714112" y="410.00408170380996" width="119" height="95.28795503812896" as="geometry" />
        </mxCell>
        <mxCell id="ufzjEFwgDuIGSn9WfB68-227" value="&lt;font style=&quot;font-size: 22px;&quot; face=&quot;Times New Roman&quot;&gt;R,&lt;b&gt;#&lt;/b&gt;;&lt;/font&gt;&lt;font style=&quot;font-size: 25px;&quot; face=&quot;Times New Roman&quot;&gt;Î¾&lt;/font&gt;&lt;font style=&quot;font-size: 22px;&quot; face=&quot;Times New Roman&quot;&gt;/&lt;/font&gt;&lt;font style=&quot;font-size: 25px;&quot; face=&quot;Times New Roman&quot;&gt;Î¾&lt;/font&gt;&lt;font style=&quot;font-size: 22px;&quot; face=&quot;Times New Roman&quot;&gt;&lt;/font&gt;" style="text;html=1;align=center;verticalAlign=middle;resizable=0;points=[];autosize=1;strokeColor=none;fillColor=none;rotation=0;" parent="ufzjEFwgDuIGSn9WfB68-226" vertex="1">
          <mxGeometry x="9" y="40" width="90" height="40" as="geometry" />
        </mxCell>
        <mxCell id="ufzjEFwgDuIGSn9WfB68-228" value="&lt;font style=&quot;font-size: 22px;&quot; face=&quot;Times New Roman&quot;&gt;C,T;&lt;/font&gt;&lt;font style=&quot;font-size: 25px;&quot; face=&quot;Times New Roman&quot;&gt;Î¾&lt;/font&gt;&lt;font style=&quot;font-size: 22px;&quot; face=&quot;Times New Roman&quot;&gt;/&lt;/font&gt;&lt;font style=&quot;font-size: 25px;&quot; face=&quot;Times New Roman&quot;&gt;(Î¾&lt;/font&gt;&lt;font style=&quot;font-size: 22px;&quot; face=&quot;Times New Roman&quot;&gt;|E)?&lt;/font&gt;" style="text;html=1;align=center;verticalAlign=middle;resizable=0;points=[];autosize=1;strokeColor=none;fillColor=none;rotation=0;" parent="ufzjEFwgDuIGSn9WfB68-226" vertex="1">
          <mxGeometry x="-11" y="10" width="130" height="40" as="geometry" />
        </mxCell>
        <mxCell id="ufzjEFwgDuIGSn9WfB68-232" value="&lt;font style=&quot;font-size: 22px;&quot; face=&quot;Times New Roman&quot;&gt;C,T;&amp;gt;E/&amp;gt;E&lt;/font&gt;" style="text;html=1;align=center;verticalAlign=middle;resizable=0;points=[];autosize=1;strokeColor=none;fillColor=none;rotation=0;" parent="ufzjEFwgDuIGSn9WfB68-226" vertex="1">
          <mxGeometry x="-9.5" y="-17" width="120" height="40" as="geometry" />
        </mxCell>
        <mxCell id="l04MjwimpnWq7epHK9HX-1" value="&lt;font style=&quot;font-size: 22px;&quot; face=&quot;Times New Roman&quot;&gt;C,T;&amp;gt;E/&amp;gt;E&lt;/font&gt;" style="text;html=1;align=center;verticalAlign=middle;resizable=0;points=[];autosize=1;strokeColor=none;fillColor=none;rotation=10;" vertex="1" parent="1">
          <mxGeometry x="779.0018435714112" y="-7.005918296190039" width="120" height="40" as="geometry" />
        </mxCell>
      </root>
    </mxGraphModel>
  </diagram>
</mxfile>
